<?xml version="1.0" encoding="utf-8"?>
<!-- Generator: Adobe Illustrator 24.0.1, SVG Export Plug-In . SVG Version: 6.00 Build 0)  -->
<svg version="1.1" id="Layer_1" xmlns="http://www.w3.org/2000/svg" xmlns:xlink="http://www.w3.org/1999/xlink" x="0px" y="0px"
	 viewBox="0 0 408.1 147.7" style="enable-background:new 0 0 408.1 147.7;" xml:space="preserve">
<style type="text/css">
	.st0{fill:#100448;}
	.st1{fill:#00B1E5;}
	.st2{fill:#EE2364;}
</style>
<g>
	<path class="st0" d="M146.2,63.9c0.2-0.5,0.3-1.1,0.4-1.7c0-0.6-0.1-1.3-0.3-2c-0.2-0.7-0.6-1.4-1.1-2.1c-0.8-1.1-1.7-1.9-2.8-2.5
		c-0.5-0.3-1-0.5-1.6-0.6c-1.1-0.9-2.3-1.7-3.6-2.5c-1.5-0.9-3.1-1.6-4.9-2.2c-1.7-0.6-3.5-0.9-5.3-0.9c-0.4,0-0.9,0-1.3,0
		c0,0-0.1,0-0.1-0.1c-0.3-0.2-0.6-0.5-0.8-0.7c-0.3-0.2-0.4-0.3-0.5-0.4c-0.3,0.4-0.6,0.9-0.9,1.4c0,0-0.1,0-0.1,0
		c-1.1,0.2-2.2,0.6-3.2,1.1c-1,0.5-1.9,1-2.7,1.6c-0.8,0.6-1.5,1.3-2,2c-0.6,0.7-1,1.4-1.3,2.2c-0.3,0.8-0.5,1.5-0.5,2.2
		c0.1,0.2,0.3,0.5,0.5,0.8c0.2,0.3,0.5,0.6,0.7,0.8c0.2,0.3,0.5,0.5,0.7,0.7c0.2,0.2,0.4,0.4,0.5,0.5c0.3,0.3,0.5,0.6,0.6,1
		c0,0.2,0.1,0.5,0.1,0.9h-6.2l-0.6,1.1l2.4,2.5h4.5v1.4c0,1,0,2.1,0,3.3c0,1.2,0,2.5,0,3.9c0,1.4,0,2.8,0,4.3c0,1.5,0,2.9-0.1,4.4
		c0,1.5-0.1,2.9-0.1,4.3c0,1.4-0.1,2.7-0.1,3.9c0.1,0.2,0.4,0.4,0.7,0.8c0.3,0.3,0.7,0.6,1,0.9c0.4,0.3,0.7,0.6,1,0.8
		c0.3,0.3,0.5,0.4,0.6,0.5c0.1,0,0.2-0.1,0.4-0.3c0.2-0.1,0.3-0.3,0.5-0.4c0.2-0.2,0.3-0.3,0.5-0.5c0.2-0.2,0.3-0.3,0.4-0.4
		c0-0.4,0-0.9-0.1-1.7c0-0.8,0-1.7,0-2.7c0-1,0-2.1,0-3.2c0-1.1,0-2.2,0-3.2c0-0.7,0-1.6,0-2.7c0-1.1,0-2.3,0-3.5c0-1.2,0-2.5,0-3.8
		c0-1.3,0-2.5,0-3.6v-2.6h2.8h0.1h2.9v18.1c0,0.8,0.2,1.6,0.7,2.6c0.5,1,1.2,2,2.1,3.1c0.4,0.5,0.9,0.9,1.3,1.3c0.5,0.4,1,0.7,1.5,1
		c0.5,0.3,1,0.5,1.5,0.6c0.5,0.1,0.9,0.2,1.4,0.1c0.4-0.1,0.9-0.2,1.4-0.4s1.1-0.5,1.6-0.8c0.5-0.3,1.1-0.7,1.6-1.1
		c0.5-0.4,1.1-0.9,1.6-1.4c1-1,1.8-2,2.4-3c0.6-0.9,1.1-1.9,1.5-2.8c0.4-0.9,0.6-1.8,0.8-2.6c0.1-0.8,0.2-1.7,0.2-2.5
		c0-1.2-0.2-2.3-0.6-3.2c-0.4-0.9-0.9-1.6-1.5-2.1s-1.3-1-2.1-1.2c-0.7-0.2-1.4-0.4-2-0.4h-0.2c-0.7,0-1.3,0.1-1.8,0.3
		c-0.5,0.2-1,0.5-1.4,0.9c-0.4,0.4-0.7,0.8-0.9,1.3c-0.2,0.5-0.3,1.1-0.3,1.6c0,0.6,0.1,1.1,0.3,1.6c0.2,0.5,0.5,0.9,0.9,1.3
		c0.4,0.4,0.8,0.7,1.3,0.9c0.5,0.2,1,0.3,1.6,0.3c0.4,0,0.8,0,1.1-0.1v0c0,0.4-0.1,0.9-0.3,1.3c-0.1,0.4-0.3,0.9-0.6,1.4
		c-0.3,0.5-0.6,1-1,1.5c-0.4,0.5-0.8,1-1.3,1.5s-0.9,0.9-1.4,1.3c-0.7,0.6-1.4,1-2.1,1.3c-0.7,0.2-1.3,0.3-1.8,0.2
		c-0.2-0.3-0.4-0.8-0.6-1.4s-0.2-1.6-0.2-2.8V67.1h15.5l0.8-1.2l-1.9-1.8C146.2,64,146.2,63.9,146.2,63.9z M133.1,54.7
		c0.3,0.1,0.6,0.2,1,0.2c-0.4,0-0.8,0-1.2,0.1c-0.7,0-1.3,0-1.8,0c-0.7,0-1.4,0-2-0.1c-0.7-0.1-1.3-0.2-1.8-0.4c0,0,0,0-0.1,0
		c0.6-0.1,1.2-0.1,1.8-0.2C130.4,54.3,131.7,54.4,133.1,54.7z M143.4,61.3c-0.3,0.5-0.8,1-1.3,1.4c-0.4,0.3-0.8,0.5-1.2,0.8h-18.3
		h-0.2H121l-0.1-0.3c-0.1-0.4-0.3-0.7-0.4-1s-0.3-0.5-0.5-0.8c-0.2-0.2-0.3-0.4-0.4-0.6c-0.1-0.7,0.1-1.5,0.5-2.3
		c0.4-0.8,1.1-1.4,1.9-2.1c0.4-0.3,0.9-0.6,1.4-0.9c0.1,0.2,0.2,0.4,0.3,0.5c0.3,0.5,0.6,0.9,1,1.4c0.4,0.5,0.9,0.9,1.4,1.2
		c0.6,0.4,1.2,0.7,2,0.9c0.8,0.2,1.7,0.4,2.8,0.4c0.9,0,1.8,0,2.7,0c0.9,0,1.7-0.1,2.5-0.2c0.8-0.1,1.6-0.1,2.4-0.2
		c0.8-0.1,1.5-0.1,2.2-0.1c0.7,0,1.3-0.1,1.8-0.1c0.2,0,0.3,0,0.4,0.1c0.2,0.2,0.4,0.4,0.7,0.5C143.7,60.5,143.7,60.9,143.4,61.3z"
		/>
	<path class="st0" d="M159.3,77.1c-0.6,0-1.2,0-1.9,0c-0.7,0-1.3,0-1.9,0c-0.6,0-1.2,0-1.8,0h-1.5c-0.2,0.3-0.4,0.6-0.7,0.9
		s-0.4,0.7-0.6,1c-0.2,0.4-0.4,0.7-0.6,1.1l1,1.5c1.5,0,3,0,4.5-0.1c0.6,0,1.2,0,1.9,0c0.7,0,1.3,0,1.9,0c0.6,0,1.2,0,1.8,0
		c0.6,0,1.1,0,1.5,0c0.2-0.3,0.4-0.6,0.7-0.9c0.2-0.3,0.5-0.7,0.7-1c0.2-0.4,0.5-0.7,0.7-1.1l-1.2-1.5
		C162.3,77,160.8,77.1,159.3,77.1z"/>
	<path class="st0" d="M250.1,90.3c-0.4-0.4-0.8-0.7-1.3-0.9c-0.5-0.2-1-0.3-1.6-0.3c-0.6,0-1.1,0.1-1.6,0.3
		c-0.5,0.2-0.9,0.5-1.3,0.9c-0.4,0.4-0.7,0.8-0.9,1.3c-0.2,0.5-0.3,1-0.3,1.6c0,0.6,0.1,1.1,0.3,1.6c0.2,0.5,0.5,0.9,0.9,1.3
		c0.4,0.4,0.8,0.6,1.3,0.9c0.5,0.2,1,0.3,1.6,0.3c0.6,0,1.1-0.1,1.6-0.3c0.5-0.2,0.9-0.5,1.3-0.9s0.7-0.8,0.9-1.3
		c0.2-0.5,0.3-1,0.3-1.6c0-0.6-0.1-1.1-0.3-1.6C250.8,91.2,250.5,90.7,250.1,90.3z"/>
	<path class="st0" d="M306.3,63.5L306.3,63.5c0.4-0.5,0.6-1,0.7-1.6c0.1-0.6,0.1-1.1,0-1.8c-0.1-0.6-0.5-1.3-1-1.9
		c-0.4-0.5-0.8-1-1.3-1.5c-0.5-0.4-1-0.8-1.6-1.2c-0.6-0.3-1.3-0.6-2-0.8c-0.7-0.2-1.5-0.3-2.4-0.3c-0.4,0-0.9,0.1-1.4,0.1
		s-1.2,0.1-1.9,0.1c-0.7,0-1.4,0.1-2.1,0.1c-0.7,0-1.4,0.1-2.1,0.1c-0.2,0-0.4,0-0.6,0c-1.1-0.9-2.3-1.7-3.6-2.4
		c-1.2-0.7-2.5-1.3-3.8-1.8c0.1,0,0.1-0.1,0.2-0.1c-0.1-0.1-0.4-0.3-0.7-0.6c-0.3-0.3-0.6-0.5-0.9-0.8c-0.3-0.2-0.6-0.5-0.9-0.7
		s-0.4-0.3-0.5-0.4c-0.4,0.5-0.7,0.9-1,1.5c-0.9-0.2-1.8-0.2-2.7-0.3c-1.3,0-2.5,0.1-3.6,0.3c-1.1,0.2-2.2,0.6-3.2,1.1
		c-1,0.5-1.9,1-2.7,1.6c-0.8,0.6-1.5,1.3-2,2c-0.6,0.7-1,1.4-1.3,2.2c-0.3,0.8-0.5,1.5-0.5,2.2c0.1,0.2,0.3,0.5,0.5,0.8
		c0.2,0.3,0.5,0.6,0.7,0.8c0.2,0.3,0.5,0.5,0.7,0.7c0.2,0.2,0.4,0.4,0.5,0.5c0.3,0.3,0.5,0.6,0.6,1c0,0.2,0.1,0.5,0.1,0.9h-5.9h-0.3
		h-25.9h-0.2h-16.7c-0.6,0-1.2,0-1.7-0.1c-0.5,0-0.9-0.1-1.1-0.1c-0.2-0.2-0.3-0.4-0.5-0.6c-0.2-0.3-0.4-0.5-0.6-0.8
		c-0.2-0.3-0.4-0.6-0.6-0.9c-0.2-0.3-0.3-0.5-0.4-0.7l-2.2,1c0.2,0.6,0.5,1.3,0.7,2.1c0.2,0.8,0.4,1.7,0.5,2.6
		c0.1,0.9,0.2,1.8,0.3,2.7c0.1,0.9,0.1,1.7,0.2,2.4c0,0,0,0-0.1,0.1c-0.1-0.4-0.2-0.8-0.4-1.2c-0.2-0.6-0.4-1.1-0.7-1.7
		s-0.6-1.2-1-1.7c-0.4-0.6-0.8-1.1-1.3-1.5c-0.5-0.5-1-0.8-1.6-1.1c-0.3-0.1-0.7-0.2-1-0.3c0.2-0.5,0.3-0.9,0.3-1.5
		c0-0.6-0.1-1.3-0.3-2c-0.2-0.7-0.6-1.4-1.1-2.1c-0.8-1.1-1.7-1.9-2.8-2.5c-1.1-0.6-2.3-0.9-3.6-0.8c-0.4,0-1,0-1.7,0.1
		c-0.7,0-1.4,0.1-2.1,0.1c-0.7,0-1.4,0.1-2.1,0.1c-0.7,0-1.3,0-1.8,0c-0.7,0-1.4,0-2-0.1c-0.7-0.1-1.3-0.2-1.8-0.4
		c-0.6-0.2-1-0.4-1.4-0.7c-0.4-0.3-0.6-0.7-0.7-1.2c0-0.2,0.1-0.4,0.2-0.6c0.1-0.2,0.3-0.4,0.5-0.5c0.2-0.2,0.4-0.3,0.7-0.5
		c0.2-0.1,0.5-0.3,0.7-0.4c-0.1-0.1-0.3-0.3-0.6-0.5c-0.3-0.2-0.6-0.5-0.9-0.7s-0.6-0.5-0.8-0.7s-0.4-0.3-0.5-0.4
		c-0.4,0.5-0.7,1-1,1.7c-0.3,0.6-0.4,1.3-0.5,2c-0.1,0.7-0.1,1.4,0.1,2.2c0.1,0.7,0.4,1.4,0.8,2c0.3,0.5,0.6,0.9,1,1.4
		c0.4,0.5,0.9,0.9,1.4,1.2c0.6,0.4,1.2,0.7,2,0.9c0.8,0.2,1.7,0.4,2.8,0.4c0.9,0,1.8,0,2.7,0c0.9,0,1.7-0.1,2.5-0.2
		c0.8-0.1,1.6-0.1,2.4-0.2c0.8-0.1,1.5-0.1,2.2-0.1c0.7,0,1.3-0.1,1.8-0.1c0.5,0,0.9,0.1,1.1,0.3c0.2,0.5,0.2,1-0.1,1.5
		c-0.3,0.5-0.8,1-1.3,1.4c-0.4,0.3-0.8,0.5-1.2,0.8h-18.5l0,0.1c-0.7,0-1.3,0.1-1.9,0.2c-0.7,0.1-1.4,0.3-2,0.6
		c-0.6,0.3-1.2,0.6-1.8,1c-0.6,0.4-1.1,0.8-1.7,1.3c-0.8,0.7-1.5,1.6-2.2,2.5c-0.6,0.9-1.2,1.9-1.7,3s-0.9,2.2-1.2,3.3
		c-0.3,1.1-0.5,2.3-0.6,3.4c-0.2,1.4-0.2,2.8-0.1,4.2c0.1,1.4,0.3,2.7,0.7,4s0.8,2.4,1.4,3.5s1.3,2,2.1,2.8c0.8,0.8,1.7,1.4,2.7,1.8
		c1,0.4,2.1,0.7,3.3,0.7c1,0,1.9-0.1,2.7-0.4c0.8-0.3,1.4-0.7,2-1.1c0.5-0.5,1-1,1.2-1.7c0.3-0.6,0.4-1.3,0.4-2
		c0-0.6-0.1-1.2-0.4-1.7s-0.6-1-1-1.4c-0.4-0.4-0.9-0.7-1.4-1c-0.6-0.2-1.1-0.3-1.7-0.3s-1.2,0.1-1.7,0.3s-1,0.5-1.4,0.9
		c-0.4,0.4-0.7,0.8-0.9,1.4c-0.2,0.5-0.3,1.1-0.3,1.7c0,0.3,0,0.6,0.1,0.8c0,0-0.1,0-0.2,0c-0.6,0.1-1.1-0.1-1.6-0.4
		c-0.6-0.7-1-1.5-1.3-2.5c-0.3-1-0.5-2.1-0.5-3.3c-0.1-1.2,0-2.5,0.2-3.8c0.2-1.3,0.5-2.7,1-4c0.2-0.7,0.5-1.4,0.9-2.1
		c0.3-0.7,0.7-1.4,1.1-2.1c0.4-0.7,0.9-1.3,1.3-2c0.5-0.6,1-1.2,1.5-1.7c0.9-0.8,1.7-1.5,2.6-1.8c0.7-0.3,1.4-0.5,2.2-0.6h3v18.1
		c0,0.8,0.2,1.6,0.7,2.6c0.5,1,1.2,2,2.1,3.1c0.4,0.5,0.9,0.9,1.3,1.3c0.5,0.4,1,0.7,1.5,1c0.5,0.3,1,0.5,1.5,0.6
		c0.5,0.1,0.9,0.2,1.4,0.1c0.4-0.1,0.9-0.2,1.4-0.4c0.5-0.2,1.1-0.5,1.6-0.8c0.5-0.3,1.1-0.7,1.6-1.1c0.5-0.4,1.1-0.9,1.6-1.4
		c1-1,1.8-2,2.4-3c0.6-0.9,1.1-1.9,1.5-2.8c0.4-0.9,0.6-1.8,0.8-2.6c0.1-0.8,0.2-1.7,0.2-2.5c0-1.2-0.2-2.3-0.6-3.2
		c-0.4-0.9-0.9-1.6-1.5-2.1s-1.3-1-2.1-1.2c-0.7-0.2-1.4-0.4-2-0.4h-0.2c-0.7,0-1.3,0.1-1.8,0.3c-0.5,0.2-1,0.5-1.4,0.9
		c-0.4,0.4-0.7,0.8-0.9,1.3c-0.2,0.5-0.3,1.1-0.3,1.6c0,0.6,0.1,1.1,0.3,1.6c0.2,0.5,0.5,0.9,0.9,1.3c0.4,0.4,0.8,0.7,1.3,0.9
		c0.5,0.2,1,0.3,1.6,0.3c0.4,0,0.8,0,1.1-0.1v0c0,0.4-0.1,0.9-0.3,1.3c-0.1,0.4-0.3,0.9-0.6,1.4c-0.3,0.5-0.6,1-1,1.5
		c-0.4,0.5-0.8,1-1.3,1.5c-0.5,0.5-0.9,0.9-1.4,1.3c-0.7,0.6-1.4,1-2.1,1.3c-0.7,0.2-1.3,0.3-1.8,0.2c-0.2-0.3-0.4-0.8-0.6-1.4
		s-0.2-1.6-0.2-2.8V67.1h15.1c0.6,0,1.1,0.3,1.6,0.8c0.5,0.5,1,1.2,1.5,2c0.4,0.8,0.8,1.7,1.1,2.7c0.2,0.8,0.4,1.5,0.5,2.3v0.9
		c0,1.1,0,2.3,0,3.5c0,1.2,0,2.4,0,3.6c0,1.2,0,2.4-0.1,3.5c0,1.2,0,2.3-0.1,3.3c0,1,0,2-0.1,2.8c0.1,0.2,0.4,0.4,0.7,0.7
		c0.3,0.3,0.6,0.6,0.9,0.8c0.3,0.3,0.7,0.6,1,0.8s0.6,0.5,0.8,0.6c0.1,0,0.2-0.1,0.4-0.3c0.2-0.1,0.3-0.3,0.5-0.4
		c0.2-0.2,0.3-0.3,0.5-0.5c0.1-0.2,0.3-0.3,0.3-0.4c0-0.4,0-0.8,0-1.4c0-0.6,0-1.3,0-2.2c0-0.9,0-2,0-3.2c0-1.3,0-2.7,0-4.5
		c0-1,0-2,0-2.8c0-0.9,0-1.7,0-2.4c0-0.7,0-1.4,0-2.1c0-0.7,0-1.3,0-1.9c0-0.5,0-1.1-0.1-1.7c0-0.6-0.1-1.2-0.2-1.9
		c-0.1-0.6-0.1-1.3-0.2-1.9c-0.1-0.6-0.2-1.2-0.3-1.7c0.3,0.1,0.6,0.1,0.9,0.2c0.3,0.1,0.6,0.2,0.8,0.2c0.3,0.1,0.5,0.1,0.8,0.2
		c0.3,0,0.6,0.1,0.9,0.1h0.2h0.3h7.1c0,0.1-0.1,0.1-0.1,0.2c-0.8,1-1.6,2.2-2.3,3.4c-0.7,1.2-1.3,2.5-1.8,3.9s-0.8,2.8-1,4.2
		c-0.3,2.3-0.2,4.5,0.1,6.5c0.4,2.1,1,3.9,1.9,5.5c0.9,1.6,2.1,2.8,3.5,3.7c1.4,0.9,3.1,1.4,4.9,1.4c0.8,0,1.6-0.1,2.3-0.4
		c0.7-0.2,1.3-0.6,1.9-1.1c0.5-0.5,1-1,1.3-1.7c0.3-0.6,0.5-1.3,0.5-2v-0.3c0-0.5-0.1-1.1-0.3-1.6c-0.2-0.5-0.5-1-1-1.4
		s-0.9-0.7-1.4-1c-0.5-0.2-1.1-0.3-1.7-0.3s-1.2,0.1-1.7,0.3c-0.5,0.2-1,0.5-1.4,0.9c-0.4,0.4-0.7,0.8-1,1.3
		c-0.2,0.5-0.3,1.1-0.3,1.7c0,0.3,0,0.6,0.1,0.9l-0.1,0c-0.3,0.1-0.6,0.1-0.9,0c-0.3-0.1-0.6-0.2-0.8-0.4c-0.5-0.6-0.9-1.3-1.2-2.3
		c-0.3-0.9-0.5-2-0.6-3.2c-0.1-1.2,0-2.4,0.2-3.8c0.2-1.3,0.5-2.7,1-4.1c0.3-1,0.8-2,1.4-3c0.6-1,1.3-2,2.2-3c0.8-1,1.7-1.9,2.7-2.8
		c0.8-0.7,1.6-1.3,2.4-1.9h1.2h0.1h0.3c0.1,0.3,0.2,0.5,0.4,0.8c0.2,0.4,0.4,0.7,0.6,1c0.2,0.3,0.4,0.6,0.6,0.7
		c0.3,0.1,0.6,0.3,1,0.4c0.4,0.1,0.8,0.2,1.2,0.3c0.4,0.1,0.9,0.1,1.3,0.2c0.5,0.1,0.9,0.2,1.4,0.3c0.9,0.2,1.6,0.5,2.2,0.8
		c0.6,0.3,1.1,0.6,1.5,1c-1,0.8-1.9,1.5-2.8,2.3s-1.7,1.5-2.4,2.2c-0.8,0.7-1.4,1.3-2,1.8c-0.6,0.5-1,0.9-1.4,1.3
		c0.2,0.2,0.5,0.6,0.9,1c0.4,0.5,0.9,1,1.3,1.6c0.5,0.6,1,1.1,1.4,1.7c0.5,0.6,0.9,1,1.2,1.4c0.7-0.1,1.4-0.1,2.1-0.1
		c0.8,0,1.5,0.1,2.3,0.3c0.8,0.2,1.5,0.4,2.3,0.8s1.5,0.8,2.2,1.3s1.3,1.2,1.9,2c0.6,0.8,1,1.7,1.4,2.7h0v0c0.1,0.1,0.3,0.3,0.6,0.5
		s0.6,0.5,0.9,0.7c0.3,0.3,0.6,0.5,0.8,0.8s0.5,0.4,0.6,0.5c0.1,0,0.2-0.1,0.4-0.2c0.2-0.1,0.4-0.2,0.5-0.4c0.2-0.1,0.4-0.3,0.5-0.4
		c0.2-0.1,0.3-0.2,0.4-0.3c0-0.5-0.1-1.1-0.1-1.8s-0.1-1.6-0.1-2.4c0-0.9,0-1.8,0-2.9c0-1,0-2,0-3c0-0.8,0-1.7,0-2.7
		c0-1,0-2.1,0-3.2c0-1.1,0-2.2,0-3.4c0-1.2,0-2.3,0-3.3v-4.2h2.7h0.2h4.3v1.4c0,1,0,2.1,0,3.3c0,1.2,0,2.5,0,3.9c0,1.4,0,2.8,0,4.3
		c0,1.5,0,2.9-0.1,4.4c0,1.5-0.1,2.9-0.1,4.3c0,1.4-0.1,2.7-0.1,3.9c0.1,0.2,0.4,0.4,0.7,0.8c0.3,0.3,0.7,0.6,1,0.9
		c0.4,0.3,0.7,0.6,1,0.8c0.3,0.3,0.5,0.4,0.6,0.5c0.1,0,0.2-0.1,0.4-0.3c0.2-0.1,0.3-0.3,0.5-0.4c0.2-0.2,0.3-0.3,0.5-0.5
		c0.2-0.2,0.3-0.3,0.4-0.4c0-0.4,0-0.9,0-1.7c0-0.8,0-1.7,0-2.7c0-1,0-2.1,0-3.2c0-1.1,0-2.2,0-3.2c0-0.7,0-1.6,0-2.7
		c0-1.1,0-2.3,0-3.5c0-1.2,0-2.5,0-3.8c0-1.3,0-2.5,0-3.6v-2.6h2.8h0.1H290v8.8c-0.5-0.9-1-1.7-1.7-2.5c-0.8-0.9-1.6-1.6-2.7-2.2
		c-1-0.6-2.2-0.8-3.5-0.8c-1,0-1.9,0.2-2.8,0.5c-0.9,0.4-1.6,0.8-2.2,1.4c-0.6,0.6-1.1,1.3-1.4,2.1c-0.3,0.8-0.5,1.6-0.5,2.5
		c0,0.7,0.1,1.4,0.4,2.1c0.2,0.7,0.6,1.2,1,1.7c0.4,0.5,1,0.9,1.6,1.2c0.6,0.3,1.3,0.4,2,0.4h0.1c0.6,0,1.2-0.1,1.7-0.3
		c0.6-0.2,1.1-0.5,1.5-0.9c0.4-0.4,0.7-0.9,1-1.4c0.2-0.5,0.4-1.1,0.4-1.7c0-0.6-0.1-1.2-0.4-1.7l0-0.1c0.1,0,0.1,0,0.2,0
		c0.2-0.1,0.5,0,0.8,0c0.3,0.1,0.6,0.2,1,0.4c0.5,0.3,1,0.6,1.5,1.1c0.5,0.5,0.9,1,1.2,1.7c0.3,0.6,0.6,1.4,0.9,2.1v0
		c0,0.1,0,0.1,0,0.2c0,0.4,0,0.6,0,0.8v2.4c0,0.4,0,0.9,0.1,1.3c0.1,0.4,0.2,0.8,0.4,1.2c0.2,0.4,0.5,0.8,0.8,1.2
		c0.3,0.4,0.7,0.9,1.1,1.3c0.3,0.4,0.7,0.8,1.1,1.2c0.4,0.4,0.9,0.8,1.3,1.1c0.5,0.3,0.9,0.6,1.4,0.8c0.5,0.2,1,0.3,1.4,0.3
		c0.5,0,1.1-0.1,1.6-0.3c0.6-0.2,1.2-0.5,1.7-0.8c0.6-0.3,1.1-0.7,1.7-1.1s1-0.8,1.4-1.3c1.7-1.8,3-3.5,3.7-5.2
		c0.8-1.7,1.1-3.5,1.1-5.3c0-1.1-0.2-2.1-0.5-3c-0.3-0.9-0.8-1.6-1.4-2.2c-0.6-0.6-1.2-1-1.9-1.4c-0.7-0.3-1.4-0.5-2.1-0.5
		c-0.6,0-1.1,0.1-1.7,0.3c-0.5,0.2-1,0.5-1.4,0.9l-0.3,0.3c-0.3,0.3-0.6,0.7-0.8,1.2c-0.2,0.5-0.3,1-0.3,1.5c0,0.6,0.1,1.1,0.3,1.6
		c0.2,0.5,0.5,0.9,0.9,1.3s0.8,0.7,1.3,0.9s1,0.3,1.6,0.3c0.2,0,0.5,0,0.7-0.1c0,0.1,0,0.3,0,0.4c-0.1,0.5-0.3,1-0.5,1.5
		s-0.6,1-0.9,1.5c-0.4,0.5-0.8,1-1.2,1.4c-0.4,0.5-0.8,0.9-1.3,1.2c-1,0.8-1.8,1.4-2.5,1.7s-1.4,0.3-1.9,0.2
		c-0.1-0.3-0.3-0.5-0.3-0.8c-0.1-0.3-0.1-0.6-0.2-1c0-0.4,0-0.9,0-1.4V67.1h15l0.6-1.1l0.1-0.1l-2.4-2.4
		C308,63.5,306.3,63.5,306.3,63.5z M254.9,87.8c-0.7-1.1-1.5-2.2-2.5-3.1s-1.9-1.7-3-2.3c-1.1-0.6-2.2-1.1-3.3-1.5c0,0,0-0.1,0-0.1
		c0.6-0.5,1.1-1,1.7-1.5s1-0.9,1.5-1.3l1.4-1.3c0.5-0.4,1-0.9,1.5-1.3c-0.2-0.7-0.5-1.4-1-2.2c-0.5-0.8-1-1.5-1.6-2.2
		c-0.6-0.7-1.1-1.3-1.7-1.8c-0.5-0.5-0.9-0.9-1.2-1.1c-0.4-0.3-0.9-0.7-1.6-1.2h9.9v2.6c0,1,0,2.1,0,3.4c0,1.3,0,2.6,0,4v8.2
		c0,0.7,0,1.4,0.1,2c0,0.5,0.1,0.9,0.1,1.3C255.2,88.2,255,88,254.9,87.8z M303.7,61c-0.4,0.5-0.9,1-1.5,1.4
		c-0.5,0.4-1.1,0.7-1.8,1.1h-27.9h-0.2h-1.5l-0.1-0.3c-0.1-0.4-0.3-0.7-0.4-1s-0.3-0.5-0.5-0.8c-0.2-0.2-0.3-0.4-0.4-0.6
		c-0.1-0.7,0.1-1.5,0.5-2.3c0.4-0.8,1.1-1.4,1.9-2.1c0.8-0.6,1.9-1.1,3.1-1.5c1.2-0.4,2.5-0.6,3.9-0.6c0,0,0.1,0,0.1,0
		c0.1,0.6,0.3,1.1,0.6,1.5c0.3,0.5,0.7,1,1.2,1.5c0.4,0.5,1,0.9,1.6,1.3c0.6,0.4,1.4,0.7,2.2,1c0.9,0.2,1.9,0.4,3.1,0.4
		c1,0,2.1,0,3.3-0.1c0.8,0,1.5-0.1,2.2-0.2c0.2,0.1,0.3,0.3,0.5,0.4l0.2-0.4c0.2,0,0.4,0,0.6,0c1.2-0.1,2.3-0.2,3.4-0.3
		c1.1-0.1,2.1-0.2,2.9-0.2c0.9,0,1.7,0,2.2,0c0.5,0,0.9,0.1,1.1,0.4C304.2,60,304,60.5,303.7,61z"/>
</g>
<g>
	<path class="st1" d="M255.7,112.3l0.4-0.7l-0.4-0.5l-1.8-2c-0.6,0-1.2-0.1-1.7-0.1c-0.5,0-0.9-0.1-1.1-0.1
		c-0.2-0.2-0.3-0.4-0.5-0.6c-0.2-0.3-0.4-0.5-0.6-0.8c-0.2-0.3-0.4-0.6-0.6-0.9c-0.2-0.3-0.3-0.5-0.4-0.7l-2.2,1
		c0.2,0.6,0.5,1.3,0.7,2.1c0.2,0.8,0.4,1.7,0.5,2.6c0.1,0.9,0.2,1.8,0.3,2.7c0.1,0.9,0.1,1.7,0.2,2.4c0,0,0,0-0.1,0.1
		c-0.1-0.4-0.2-0.8-0.4-1.2c-0.2-0.6-0.4-1.1-0.7-1.7s-0.6-1.2-1-1.7c-0.4-0.6-0.8-1.1-1.3-1.5c-0.5-0.5-1-0.8-1.6-1.1
		c-0.5-0.3-1.1-0.4-1.8-0.4l0,0h-0.1h-0.1h-33.1l0,0h-2.4c-0.6-0.3-1.2-0.7-1.7-1.2c-0.5-0.5-1-1-1.5-1.7c-0.4,0.3-0.9,0.6-1.2,0.8
		c-0.4,0.3-0.7,0.5-0.9,0.7c1.6,2.5,2.4,5.9,2.4,10.2l-0.1,0c-0.2-0.6-0.4-1.2-0.7-1.7c-0.3-0.6-0.7-1.1-1-1.6
		c-0.4-0.5-0.7-0.9-1.1-1.3c-0.4-0.4-0.8-0.8-1.1-1.1c-0.3-0.3-0.6-0.6-1.1-1c-0.5-0.4-1-0.7-1.6-1c-0.6-0.3-1.2-0.5-1.8-0.7
		c-0.6-0.1-1.2-0.1-1.7,0c-0.3,0.1-0.7,0.4-1.1,0.8c-0.5,0.4-0.9,0.8-1.4,1.3c-0.5,0.5-0.9,1-1.3,1.6c-0.4,0.5-0.7,1-0.9,1.5h-0.2
		c-0.6-1-1.3-1.9-2-2.6s-1.6-1.3-2.5-1.7c-0.9-0.4-1.9-0.8-3-0.9s-2.3-0.3-3.6-0.3h0h-0.4h-25.8h-0.2h-1.5l-0.1-0.3
		c-0.1-0.4-0.3-0.7-0.4-1c-0.2-0.3-0.3-0.5-0.5-0.8c-0.2-0.2-0.3-0.4-0.4-0.6c-0.1-0.7,0.1-1.5,0.5-2.3c0.4-0.8,1.1-1.4,1.9-2.1
		c0.8-0.6,1.9-1.1,3.1-1.5c1.2-0.4,2.5-0.6,3.9-0.6c1.4,0,2.8,0.1,4.1,0.4c1.3,0.3,2.6,0.7,3.9,1.2c1.2,0.5,2.4,1.1,3.6,1.9
		c1.1,0.7,2.2,1.5,3.2,2.4l0.9-1.7c-0.9-1-2-2.1-3.3-3.2c-1.3-1.1-2.7-2-4.2-2.9c-1.5-0.9-3.1-1.6-4.9-2.2c-1.7-0.6-3.5-0.9-5.3-0.9
		c-1.3,0-2.5,0.1-3.6,0.3c-1.1,0.2-2.2,0.6-3.2,1.1c-1,0.5-1.9,1-2.7,1.6c-0.8,0.6-1.5,1.3-2,2c-0.6,0.7-1,1.4-1.3,2.2
		c-0.3,0.8-0.5,1.5-0.5,2.2c0.1,0.2,0.3,0.5,0.5,0.8c0.2,0.3,0.5,0.6,0.7,0.8c0.2,0.3,0.5,0.5,0.7,0.7c0.2,0.2,0.4,0.4,0.5,0.5
		c0.3,0.3,0.5,0.6,0.6,1c0,0.2,0.1,0.5,0.1,0.9h-6.2l-0.6,1.1l2.4,2.5h4.5v1.4c0,1,0,2.1,0,3.3c0,1.2,0,2.5,0,3.9c0,1.4,0,2.8,0,4.3
		c0,1.5,0,2.9-0.1,4.4c0,1.5-0.1,2.9-0.1,4.3c0,1.4-0.1,2.7-0.1,3.9c0.1,0.2,0.4,0.4,0.7,0.8c0.3,0.3,0.7,0.6,1,0.9
		c0.4,0.3,0.7,0.6,1,0.8c0.3,0.3,0.5,0.4,0.6,0.5c0.1,0,0.2-0.1,0.4-0.3c0.2-0.1,0.3-0.3,0.5-0.4s0.3-0.3,0.5-0.5
		c0.2-0.2,0.3-0.3,0.4-0.4c0-0.4,0-0.9-0.1-1.7c0-0.8,0-1.7,0-2.7c0-1,0-2.1,0-3.2c0-1.1,0-2.2,0-3.2c0-0.7,0-1.6,0-2.7
		c0-1.1,0-2.3,0-3.5c0-1.2,0-2.5,0-3.8c0-1.3,0-2.5,0-3.6v-2.6h2.8h0.1h18.6v2c-1.5,0.2-2.9,0.6-4.3,1c-2,0.6-3.8,1.4-5.5,2.3
		c-1.7,0.9-3.2,1.8-4.6,2.9c-1.4,1-2.5,2.1-3.4,3.1c0.2,0.3,0.6,0.7,1,1.3c0.4,0.5,0.9,1.1,1.4,1.7c0.5,0.6,1,1.2,1.4,1.8
		c0.5,0.6,0.8,1.1,1.1,1.5c0.7-0.1,1.4-0.1,2.2,0c0.8,0.1,1.6,0.2,2.4,0.5c0.8,0.2,1.7,0.6,2.5,1c0.8,0.4,1.6,1,2.4,1.6
		s1.4,1.4,2,2.2c0.6,0.8,1.1,1.8,1.5,2.9c0.1,0.1,0.3,0.3,0.6,0.5c0.3,0.2,0.6,0.5,1,0.8c0.3,0.3,0.6,0.5,0.9,0.8
		c0.3,0.2,0.5,0.4,0.5,0.4c0.1,0,0.2-0.1,0.3-0.2c0.2-0.1,0.3-0.3,0.5-0.4s0.4-0.3,0.5-0.4c0.2-0.1,0.3-0.2,0.3-0.2
		c-0.1-0.7-0.1-1.6-0.2-2.8c-0.1-1.2-0.1-2.8-0.1-4.7c0-0.8,0-1.8,0-3s0-2.4,0-3.8c0-1.3,0-2.7,0-4.1c0-1.4,0-2.8,0-4.1
		c0-1.3,0-2.5,0-3.5v-1h2.8h0.3h0.1c0.7,0,1.4,0,2.2,0.2c0.7,0.1,1.4,0.4,2.1,0.7s1.2,0.7,1.8,1.2c0.5,0.5,0.9,1,1.2,1.7
		c-0.9,0.4-1.7,0.9-2.4,1.5s-1.3,1.1-1.8,1.7c-0.5,0.6-0.8,1.2-1.1,1.9c-0.2,0.6-0.3,1.3-0.2,1.9c0.1,0.5,0.2,1,0.5,1.5
		c0.3,0.4,0.7,0.8,1.1,1.1c0.5,0.3,1,0.5,1.6,0.6c0.6,0.1,1.2,0,1.8-0.2c0.5-0.2,1-0.4,1.4-0.8c0.4-0.3,0.7-0.6,1-1
		c0.3-0.3,0.5-0.6,0.6-0.9c0.1-0.2,0.2-0.4,0.3-0.4h0c0,0,0,0,0.1,0c0,0,0.1,0,0.1,0c0.6,0.9,1.2,1.7,1.8,2.2
		c0.6,0.5,1.4,0.8,2.3,0.9c0.6,0.1,1.2,0,1.8-0.2c0.6-0.2,1-0.5,1.4-1c0.4-0.4,0.6-1,0.7-1.6c0.1-0.6,0-1.3-0.3-2
		c-0.3-1-0.8-1.8-1.4-2.5c-0.7-0.7-1.4-1.3-2.2-1.8c0.3-0.7,0.7-1.3,1.2-1.8s1.1-0.9,1.8-1.2c0.7,0.3,1.4,0.8,2.1,1.4
		c0.7,0.6,1.3,1.3,1.9,2.1c0.6,0.8,1.1,1.7,1.5,2.7c0.3,0.7,0.6,1.5,0.7,2.4c-0.8,0.4-1.6,0.8-2.4,1.2c-1.4,0.8-2.7,1.6-3.9,2.5
		c-1.2,0.9-2.4,1.8-3.4,2.6c-1,0.9-1.8,1.7-2.4,2.4c0.2,0.3,0.5,0.7,0.9,1.2c0.4,0.5,0.8,1,1.2,1.5c0.4,0.5,0.7,0.9,1.1,1.4
		c0.3,0.4,0.5,0.7,0.6,0.9c1.3,0.1,2.4,0.1,3.4,0.3c1,0.1,1.8,0.4,2.5,0.7c0.7,0.3,1.3,0.7,1.8,1.3c0.5,0.5,0.9,1.2,1.2,2
		c0.1,0.1,0.4,0.2,0.7,0.4c0.3,0.2,0.6,0.4,0.9,0.6c0.3,0.2,0.6,0.4,1,0.6c0.3,0.2,0.5,0.4,0.7,0.5c0.1-0.1,0.2-0.2,0.3-0.3
		c0.1-0.1,0.3-0.2,0.5-0.4c0.2-0.1,0.3-0.2,0.4-0.3c0.1-0.1,0.2-0.2,0.3-0.2c0-0.2-0.1-0.4-0.1-0.7c0-0.3-0.1-0.5-0.1-0.8
		c0-0.3-0.1-0.6-0.1-0.9c0-0.3,0-0.6,0-0.9v-2.3c0-0.4,0-0.9,0-1.4c0-0.6,0-1.4,0-2.5c0,0,0-0.2,0-0.4v-6.2c0-1,0-1.9,0-2.8
		c0-0.9,0-1.7,0-2.4v-1.5c0-0.6,0-1.2,0-1.8c0-0.6-0.1-1.1-0.2-1.6c-0.1-0.5-0.2-1-0.4-1.5c-0.2-0.5-0.4-1-0.7-1.5
		c0.5,0.1,1.1,0.3,1.8,0.4c0.7,0.1,1.4,0.2,2.2,0.2h0.6l0,0h16.1v2c-1.2,0.1-2.5,0.4-3.7,0.8c-1.8,0.6-3.5,1.3-5.1,2.2
		c-1.6,0.9-3.1,1.9-4.4,2.9c-1.3,1.1-2.5,2.1-3.4,3c0.1,0.1,0.2,0.3,0.4,0.6s0.5,0.6,0.8,1.1c0.3,0.4,0.6,0.9,1,1.3
		c0.4,0.5,0.7,1,1,1.4c0.3,0.5,0.7,0.9,0.9,1.2c0.3,0.4,0.5,0.7,0.7,0.9c1.4,0,2.7,0.2,4,0.6c1.3,0.4,2.5,0.9,3.5,1.6
		c1,0.7,1.9,1.5,2.7,2.5c0.8,1,1.3,2.2,1.7,3.4c0.1,0.1,0.4,0.3,0.7,0.5c0.3,0.3,0.6,0.5,1,0.8c0.3,0.3,0.6,0.5,0.9,0.8
		c0.3,0.2,0.4,0.4,0.5,0.4c0.1,0,0.2-0.1,0.4-0.2c0.2-0.1,0.4-0.2,0.6-0.3c0.2-0.1,0.4-0.2,0.5-0.3s0.3-0.2,0.3-0.2
		c-0.1-0.6-0.1-1.1-0.2-1.7c0-0.6-0.1-1.1-0.1-1.7c0-0.6,0-1.3,0-2c0-0.7,0-1.5,0-2.4c0-0.8,0-1.8,0-3c0-1.2,0-2.4,0-3.7
		c0-1.3,0-2.7,0-4.1v-1.8c0.2,0,0.4,0,0.6,0.1c1.2,0.1,2.3,0.4,3.3,0.7c1,0.4,1.9,0.8,2.7,1.4c0.8,0.6,1.3,1.2,1.7,2
		c0,0.7-0.1,1.3-0.2,1.7c-0.1,0.3-0.2,0.5-0.3,0.7c-0.1-0.1-0.3-0.2-0.4-0.2c-0.5-0.2-1-0.3-1.5-0.3c-0.5,0-1,0.1-1.5,0.3
		s-0.8,0.5-1.2,0.8c-0.3,0.4-0.6,0.8-0.8,1.3c-0.2,0.5-0.3,1-0.3,1.6c0,0.5,0.1,1,0.3,1.5c0.2,0.5,0.5,0.9,0.8,1.3
		c0.4,0.4,0.8,0.7,1.2,0.9c0.4,0.2,0.9,0.3,1.4,0.3h0.2c0.7,0,1.4-0.2,2.1-0.5c0.7-0.3,1.3-0.8,1.8-1.4s0.9-1.3,1.2-2.2
		c0.3-0.9,0.4-1.8,0.4-2.9c0-0.9-0.1-1.8-0.3-2.6c-0.2-0.8-0.5-1.6-0.9-2.4c-0.4-0.7-0.8-1.5-1.3-2.1c-0.5-0.7-1.1-1.3-1.7-1.8
		c-1.3-1.2-2.8-2-4.4-2.5c-0.9-0.3-1.8-0.5-2.9-0.6v-2H243c0.6,0,1.1,0.3,1.6,0.8s1,1.2,1.5,2c0.4,0.8,0.8,1.7,1.1,2.7
		c0.2,0.8,0.4,1.5,0.5,2.3v0.9c0,1.1,0,2.3,0,3.5c0,1.2,0,2.4-0.1,3.6c0,1.2,0,2.4-0.1,3.5c0,1.2-0.1,2.3-0.1,3.3c0,1,0,2-0.1,2.8
		c0.1,0.2,0.4,0.4,0.7,0.7c0.3,0.3,0.6,0.6,0.9,0.8s0.7,0.6,1,0.8c0.3,0.3,0.6,0.5,0.8,0.6c0.1,0,0.2-0.1,0.4-0.3
		c0.2-0.1,0.3-0.3,0.5-0.4c0.2-0.2,0.3-0.3,0.5-0.5c0.1-0.2,0.3-0.3,0.3-0.4c0-0.4,0-0.8,0-1.4c0-0.6,0-1.3-0.1-2.2c0-0.9,0-2,0-3.2
		c0-1.3,0-2.7,0-4.5c0-1,0-2,0-2.8c0-0.9,0-1.7,0-2.4c0-0.7,0-1.4,0-2.1c0-0.7,0-1.3,0-1.9c0-0.5,0-1.1-0.1-1.7
		c-0.1-0.6-0.1-1.2-0.2-1.9c-0.1-0.6-0.1-1.3-0.2-1.9c-0.1-0.6-0.2-1.2-0.3-1.7c0.3,0.1,0.6,0.1,0.9,0.2c0.3,0.1,0.6,0.2,0.8,0.2
		c0.3,0.1,0.5,0.1,0.8,0.2c0.3,0,0.6,0.1,0.9,0.1h0.5L255.7,112.3z M170.6,134c-0.4-0.7-0.8-1.4-1.2-2c-0.9-1.2-1.9-2.2-2.9-3.1
		c-1-0.9-2.1-1.6-3.1-2.1c-1-0.5-1.9-0.9-2.6-1.2c0,0-0.1-0.1-0.1-0.1c0,0,0-0.1,0-0.1c0.6-0.6,1.3-1.2,2.2-1.8
		c0.9-0.6,1.9-1.2,3-1.7c1.1-0.5,2.3-0.9,3.5-1.3c0.4-0.1,0.7-0.2,1.1-0.3c0,0.7,0,1.3,0,2c0,1.4,0,2.8,0,4.2v4c0,0.7,0,1.4,0.1,1.9
		c0,0.5,0.1,1,0.1,1.3C170.7,134,170.7,134,170.6,134z M201.1,135.7c-1.3-1.2-2.9-2.2-4.9-2.9c0.5-0.5,1.1-1.1,1.7-1.6
		c0.7-0.5,1.3-1.1,2-1.5c0.7-0.5,1.4-0.9,2.1-1.2c0.1-0.1,0.3-0.1,0.4-0.2v1.2c0,1,0,1.9,0,2.8v4.5c0,0.2,0,0.4,0,0.6
		C202.1,136.8,201.6,136.2,201.1,135.7z M226.2,132.8c-0.7-1.1-1.4-2.1-2.3-2.9c-0.9-0.9-1.9-1.7-3-2.3c-1.1-0.7-2.3-1.3-3.6-1.8
		l0,0c0,0,0,0-0.1-0.1c0.6-0.7,1.3-1.3,2.1-1.9c0.8-0.6,1.7-1.2,2.6-1.7c0.9-0.5,1.9-1,3-1.4c0.5-0.2,1.1-0.4,1.6-0.5v2.5
		c0,1.4,0,2.8,0,4.2v4c0,0.7,0,1.4,0.1,1.9c0,0.4,0.1,0.8,0.1,1.1C226.5,133.3,226.4,133,226.2,132.8z"/>
	<path class="st1" d="M284.9,109.1c-0.8,0-1.5-0.1-1.8-0.1c-0.4-0.1-0.7-0.1-0.9-0.2c-0.2-0.1-0.5-0.3-0.7-0.5
		c-0.2-0.2-0.5-0.5-0.7-0.7c-0.2-0.2-0.5-0.5-0.7-0.8c-0.2-0.3-0.4-0.5-0.5-0.7l-2.2,1.5c0.5,0.8,0.8,1.6,1.1,2.5s0.5,1.9,0.7,2.9
		c0.2,1,0.3,2,0.3,3c0.1,0.9,0.1,1.8,0.1,2.7c-0.5-0.9-1-1.8-1.6-2.8c-0.8-1.2-1.7-2.4-2.7-3.4c-1-1-2.2-1.8-3.5-2.5
		c-1.3-0.6-2.8-1-4.5-0.9c-1.3,0-2.5,0.2-3.8,0.6c-1.2,0.4-2.4,1-3.5,1.7c-1.1,0.7-2,1.6-2.8,2.6c-0.8,1-1.5,2.1-1.9,3.3
		c0.2,0.4,0.5,0.8,0.8,1.2c0.3,0.4,0.7,0.9,1.1,1.3c0.4,0.4,0.8,0.8,1.2,1.1c0.4,0.3,0.8,0.6,1.1,0.7c0.2-0.2,0.6-0.4,0.9-0.6
		c0.4-0.2,0.8-0.4,1.2-0.5c0.4-0.1,0.9-0.2,1.4-0.2c0.5,0,0.9,0,1.3,0.2c0.1,0.5,0.2,1,0.2,1.6c0,0.6-0.1,1.2-0.3,1.8
		c-0.2,0.6-0.4,1.2-0.6,1.7c-0.3,0.6-0.6,1-0.9,1.4l-0.8,0.7l0,0.3c0.1,0.1,0.4,0.3,0.8,0.6c0.4,0.3,0.9,0.6,1.4,1s1,0.7,1.4,1
		c0.4,0.3,0.7,0.5,0.9,0.6c1-1,2.1-2.1,3.1-3.1c1.1-1.1,2.2-2.1,3.2-3.1s2.1-2,3.1-2.8c0.6-0.5,1.2-1,1.7-1.5c0.5,0.9,1,1.9,1.4,2.9
		c0,0,0,0.1,0,0.1c0,1.7,0,3.3,0,5c0,1.7,0,3.4-0.1,5c0,1.6-0.1,3.1-0.1,4.4c0.1,0.2,0.4,0.4,0.7,0.8c0.3,0.3,0.6,0.6,1,0.9
		c0.3,0.3,0.7,0.6,1,0.9c0.3,0.3,0.6,0.5,0.8,0.6c0.1-0.1,0.2-0.1,0.4-0.3c0.2-0.1,0.3-0.3,0.5-0.4c0.2-0.1,0.3-0.3,0.5-0.4
		c0.1-0.1,0.3-0.3,0.3-0.4c0-0.2-0.1-0.6-0.1-1c0-0.5,0-1-0.1-1.7c0-0.7,0-1.4,0-2.2c0-0.8,0-1.6,0-2.4s0-1.6,0-2.4
		c0-0.8,0-1.5,0-2.2v-8.4c0-1,0-1.8-0.1-2.5c0-0.7-0.1-1.4-0.2-2c-0.1-0.6-0.2-1.1-0.4-1.6s-0.3-0.9-0.5-1.4c0.2,0,0.4,0.1,0.7,0.2
		c0.3,0.1,0.6,0.1,1,0.2c0.3,0.1,0.7,0.1,1.1,0.2c0.4,0,0.8,0.1,1.2,0.1h0.5l0.7-1.1l-0.4-0.4L284.9,109.1z M273.7,117
		c-0.6,0.5-1.3,1-1.9,1.6c-0.7,0.6-1.3,1.1-2,1.7c-0.7,0.6-1.3,1.2-2,1.7c-0.2-0.7-0.4-1.3-0.8-1.9c-0.3-0.6-0.7-1.1-1.1-1.5
		c-0.5-0.5-1-0.9-1.4-1.1c-0.5-0.2-0.9-0.4-1.3-0.4l0-0.1c0.3-0.4,0.7-0.8,1.1-1.2c0.4-0.4,0.9-0.7,1.5-1c0.5-0.3,1.1-0.5,1.7-0.7
		c0.6-0.2,1.3-0.3,1.9-0.3c0.9,0,1.7,0.2,2.5,0.5c0.8,0.3,1.5,0.8,2.2,1.5c0.2,0.1,0.3,0.3,0.5,0.4C274.3,116.5,274,116.8,273.7,117
		z"/>
	<path class="st1" d="M321,137.2c-2.1-1.6-4.1-3-6-4c0.9,0,1.9-0.2,2.8-0.6s1.7-0.9,2.4-1.5c0.7-0.7,1.4-1.4,1.9-2.3
		c0.5-0.9,0.9-1.8,1.1-2.8c0.3-1.3,0.3-2.6,0-4c-0.3-1.4-1-2.6-2-3.8c-1-1.2-2.3-2.3-4-3.3c-1.7-1-3.7-1.7-6.1-2.3
		c0-0.5-0.2-1-0.4-1.4c-0.2-0.4-0.5-0.8-0.8-1.1c-0.3-0.3-0.7-0.6-1.1-0.8c-0.4-0.2-0.9-0.3-1.4-0.3c-0.5,0-0.9,0-1.3,0.2
		c-0.4,0.1-0.8,0.3-1.1,0.5c-0.3,0.2-0.6,0.5-0.8,0.8c-0.2,0.3-0.4,0.7-0.5,1c-0.2,0.6-0.2,1.1-0.1,1.8c0.1,0.6,0.3,1.2,0.7,1.8
		c0.4,0.6,0.9,1.1,1.6,1.6s1.6,0.9,2.7,1.3c0.8,0.3,1.6,0.5,2.4,0.8c0.8,0.3,1.7,0.5,2.5,0.8s1.6,0.6,2.3,1s1.4,0.8,2,1.3
		c0.6,0.5,1.1,1.1,1.4,1.7s0.6,1.4,0.7,2.3c-0.4,0.9-0.9,1.5-1.6,1.9c-0.7,0.4-1.6,0.7-2.5,0.7c-1,0.1-2,0-3.1-0.2
		c-1.1-0.2-2.3-0.5-3.4-0.9c-1.1-0.4-2.3-0.9-3.3-1.4c-1.1-0.5-2.1-1.1-3-1.6c-0.1,0.1-0.2,0.1-0.3,0.2c-0.1,0.1-0.3,0.2-0.4,0.3
		c-0.1,0.1-0.3,0.2-0.4,0.2s-0.2,0.1-0.2,0.2c0.2,0.5,0.5,1.1,0.8,1.8c0.3,0.7,0.5,1.4,0.8,2.2c0.3,0.8,0.5,1.5,0.8,2.3
		c0.3,0.7,0.5,1.4,0.7,2c1.6,0.4,3.2,0.9,4.9,1.6c1.7,0.6,3.5,1.4,5.3,2.3c1.8,0.9,3.6,2,5.4,3.2c1.8,1.2,3.5,2.6,5.2,4.2
		c0,0,0.2-0.1,0.4-0.3c0.2-0.2,0.4-0.4,0.6-0.6s0.4-0.4,0.6-0.6c0.2-0.2,0.3-0.3,0.3-0.3C325.2,140.7,323.1,138.8,321,137.2z"/>
	<path class="st1" d="M351.9,118.8c-0.5-1-1.2-1.8-1.9-2.5c-1.4-1.4-3-2.4-4.6-3c-1.6-0.7-3.3-1-4.9-1c-1.7,0-3.3,0.3-4.8,1
		c-1.6,0.7-3,1.7-4.2,3c-1.4,1.4-2.4,3-3,4.7s-1,3.4-1,5.2s0.3,3.4,1,5.1s1.6,3.2,3,4.6c0.9,0.9,1.9,1.7,2.9,2.3
		c1.1,0.6,2.1,1,3.3,1.2c1.1,0.2,2.3,0.3,3.4,0.2c1.1-0.1,2.3-0.3,3.3-0.7c1.1-0.4,2.1-0.9,3.1-1.5s1.8-1.4,2.6-2.2
		c0.8-0.9,1.5-1.9,2-3c0.5-1.1,0.9-2.2,1.2-3.4c0.3-1.1,0.4-2.3,0.4-3.5c0-1.2-0.1-2.3-0.4-3.4C352.8,120.8,352.4,119.7,351.9,118.8
		z M348.1,122.8c0,0.8-0.2,1.6-0.3,2.4c-0.2,0.8-0.4,1.6-0.7,2.3c-0.3,0.8-0.6,1.4-1,2c-0.5,0.9-1.2,1.9-2.1,2.8
		c-0.8,0.9-1.8,1.7-2.8,2.3c-1,0.6-2,1-3.1,1.2c-1.1,0.2-2.2,0-3.2-0.5c-0.6-0.4-1.1-1-1.5-1.6c-0.3-0.6-0.6-1.3-0.7-2.1
		s-0.2-1.5-0.1-2.3c0-0.8,0.2-1.6,0.3-2.4c0.2-0.8,0.4-1.6,0.7-2.3c0.3-0.7,0.6-1.4,1-2.1c0.6-1,1.3-2,2.1-2.9
		c0.8-0.9,1.8-1.7,2.8-2.3c1-0.6,2-1,3.1-1.2c1.1-0.2,2.1,0,3.2,0.5c0.6,0.4,1.1,1,1.4,1.6c0.4,0.6,0.6,1.3,0.7,2.1
		C348.1,121.2,348.2,121.9,348.1,122.8z"/>
	<path class="st1" d="M376.4,137.2c-2.1-1.6-4.1-3-6-4c0.9,0,1.9-0.2,2.8-0.6s1.7-0.9,2.4-1.5c0.7-0.7,1.4-1.4,1.9-2.3
		c0.5-0.9,0.9-1.8,1.1-2.8c0.3-1.3,0.3-2.6,0-4c-0.3-1.4-1-2.6-2-3.8c-1-1.2-2.3-2.3-4-3.3c-1.7-1-3.7-1.7-6.1-2.3
		c0-0.5-0.2-1-0.4-1.4c-0.2-0.4-0.5-0.8-0.8-1.1c-0.3-0.3-0.7-0.6-1.1-0.8c-0.4-0.2-0.9-0.3-1.4-0.3c-0.5,0-0.9,0-1.3,0.2
		c-0.4,0.1-0.8,0.3-1.1,0.5c-0.3,0.2-0.6,0.5-0.8,0.8c-0.2,0.3-0.4,0.7-0.5,1c-0.2,0.6-0.2,1.1-0.1,1.8c0.1,0.6,0.3,1.2,0.7,1.8
		c0.4,0.6,0.9,1.1,1.6,1.6s1.6,0.9,2.7,1.3c0.8,0.3,1.6,0.5,2.4,0.8c0.8,0.3,1.7,0.5,2.5,0.8s1.6,0.6,2.3,1s1.4,0.8,2,1.3
		c0.6,0.5,1.1,1.1,1.4,1.7c0.4,0.7,0.6,1.4,0.7,2.3c-0.4,0.9-0.9,1.5-1.6,1.9c-0.7,0.4-1.6,0.7-2.5,0.7c-1,0.1-2,0-3.1-0.2
		c-1.1-0.2-2.3-0.5-3.4-0.9c-1.1-0.4-2.3-0.9-3.3-1.4c-1.1-0.5-2.1-1.1-3-1.6c-0.1,0.1-0.2,0.1-0.3,0.2c-0.1,0.1-0.3,0.2-0.4,0.3
		c-0.1,0.1-0.3,0.2-0.4,0.2s-0.2,0.1-0.2,0.2c0.2,0.5,0.5,1.1,0.8,1.8c0.3,0.7,0.5,1.4,0.8,2.2c0.3,0.8,0.5,1.5,0.8,2.3
		c0.3,0.7,0.5,1.4,0.7,2c1.6,0.4,3.2,0.9,4.9,1.6c1.7,0.6,3.5,1.4,5.3,2.3c1.8,0.9,3.6,2,5.4,3.2s3.5,2.6,5.2,4.2
		c0,0,0.2-0.1,0.4-0.3c0.2-0.2,0.4-0.4,0.6-0.6c0.2-0.2,0.4-0.4,0.6-0.6c0.2-0.2,0.3-0.3,0.3-0.3
		C380.6,140.7,378.5,138.8,376.4,137.2z"/>
	<path class="st1" d="M401.8,137.2c-2.1-1.6-4.1-3-6-4c0.9,0,1.9-0.2,2.8-0.6s1.7-0.9,2.4-1.5c0.7-0.7,1.4-1.4,1.9-2.3
		c0.5-0.9,0.9-1.8,1.1-2.8c0.3-1.3,0.3-2.6,0-4c-0.3-1.4-1-2.6-2-3.8c-1-1.2-2.3-2.3-4-3.3c-1.7-1-3.7-1.7-6.1-2.3
		c0-0.5-0.2-1-0.4-1.4c-0.2-0.4-0.5-0.8-0.8-1.1c-0.3-0.3-0.7-0.6-1.1-0.8c-0.4-0.2-0.9-0.3-1.4-0.3c-0.5,0-0.9,0-1.3,0.2
		c-0.4,0.1-0.8,0.3-1.1,0.5c-0.3,0.2-0.6,0.5-0.8,0.8c-0.2,0.3-0.4,0.7-0.5,1c-0.2,0.6-0.2,1.1-0.1,1.8c0.1,0.6,0.3,1.2,0.7,1.8
		c0.4,0.6,0.9,1.1,1.6,1.6s1.6,0.9,2.7,1.3c0.8,0.3,1.6,0.5,2.4,0.8c0.8,0.3,1.7,0.5,2.5,0.8s1.6,0.6,2.3,1s1.4,0.8,2,1.3
		c0.6,0.5,1.1,1.1,1.4,1.7c0.4,0.7,0.6,1.4,0.7,2.3c-0.4,0.9-0.9,1.5-1.6,1.9c-0.7,0.4-1.6,0.7-2.5,0.7c-1,0.1-2,0-3.1-0.2
		c-1.1-0.2-2.3-0.5-3.4-0.9c-1.1-0.4-2.3-0.9-3.3-1.4c-1.1-0.5-2.1-1.1-3-1.6c-0.1,0.1-0.2,0.1-0.3,0.2c-0.1,0.1-0.3,0.2-0.4,0.3
		c-0.1,0.1-0.3,0.2-0.4,0.2s-0.2,0.1-0.2,0.2c0.2,0.5,0.5,1.1,0.8,1.8c0.3,0.7,0.5,1.4,0.8,2.2c0.3,0.8,0.5,1.5,0.8,2.3
		c0.3,0.7,0.5,1.4,0.7,2c1.6,0.4,3.2,0.9,4.9,1.6c1.7,0.6,3.5,1.4,5.3,2.3c1.8,0.9,3.6,2,5.4,3.2s3.5,2.6,5.2,4.2
		c0,0,0.2-0.1,0.4-0.3c0.2-0.2,0.4-0.4,0.6-0.6c0.2-0.2,0.4-0.4,0.6-0.6c0.2-0.2,0.3-0.3,0.3-0.3C406,140.7,403.9,138.8,401.8,137.2
		z"/>
</g>
<g>
	<path class="st2" d="M62.3,31.7c0.3,0,0.5,0.1,0.7,0.1c-0.5-0.5-1-1-1.5-1.5c-0.4-0.6-0.7-1.3-0.4-2.2c1.6,0.7,3.1,1.3,4.6,2
		c0.2,0.1,0.3,0.5,0.5,0.7c0.5,0.9,0.9,1.7,1.4,2.6c0.1,0,0.1-0.1,0.2-0.1c-0.4-0.9-0.7-1.8-1.1-2.7c2.9,0.9,5.5,2.1,8.5,1.9
		c-2.1-0.3-4-1.1-5.9-1.9c-2.5-1.1-4.9-2.2-7.3-3.3c-1-0.4-2-0.8-2.9-1.4c-1.6-1.1-1.9-2.7-1.5-4.5c0.6-2.8,2.2-5.1,4.3-7.1
		c1.7-1.6,3.7-3,5.5-4.5c0.4-0.3,0.7-0.4,0.9,0.1c0.1,0.2,0.3,0.4,0.6,0.8c-0.4-1.5-0.4-1.4,0.8-2.3c2-1.4,4-2.9,6-4.3
		c2.1-1.5,4.2-3.1,6.8-3.9c1.1-0.4,2.1-0.3,3.1,0.3c1.2,0.7,2.4,1.2,3.6,1.9c1.9,1,3.2,2.6,4.6,4.2c1.2,1.3,2.4,2.6,3.7,3.9
		c0.1,0,0.1-0.1,0.2-0.1c-0.1,0.5-0.2,0.9-0.2,1.4c0.7-1.3,1.7-2.1,2.9-2.7c0.4-0.2,0.7-0.6,1-0.9c0.6-0.4,1.1-0.8,1.8-1
		c1-0.4,2.1-0.6,3.1-0.8c0.3-0.1,0.8-0.1,1.1,0.1c0.6,0.2,0.7,0.8,0.3,1.3c-0.3,0.4-0.7,0.8-1,1.2c0.4-0.2,0.8-0.5,1.2-0.6
		c0.4-0.1,0.8-0.3,1.2-0.2c0.8,0.2,0.9,0.7,0.4,1.4c-0.3,0.4-0.7,0.8-1.2,1.3c0.8-0.4,1.4-0.7,2-0.9c0.3-0.1,0.6-0.2,0.9-0.3
		c0.5-0.1,0.9,0.2,1,0.6c0.1,0.3-0.1,0.8-0.3,1.1c-0.4,0.6-0.9,1.1-1.2,1.5c0.5-0.1,1.2-0.5,1.8-0.9c0.2-0.2,0.5-0.5,0.7-0.5
		c0.5-0.1,1-0.2,1.4,0c0.5,0.3,0.5,0.9,0.2,1.3c-0.4,0.6-0.9,1.2-1.4,1.7c-0.5,0.5-1.2,1-1.7,1.4c0.4,0.6,0.7,1.1,1.1,1.6
		c0.2,0.3,0.6,0.5,0.9,0.6c-0.7-1-0.9-1.9-0.3-3c0.1,1.3-0.1,2.7,1.5,3.4c-1.1-1.6-0.9-3.9,0.3-5c1.1-1,2.7-0.9,4.9,0.6
		c-1.2,0.1-2.2,0.4-3,1.3c-0.7,0.9-0.9,1.9-0.8,3.2c0.2-0.5,0.3-0.8,0.4-1.1c1-2.6,3.3-2.9,5.3-1.4c2.2,1.7,3.1,4,2.9,6.8
		c0,0.5-0.2,0.6-0.6,0.4c-1.4-0.6-2.7-1.1-4.1-1.7c0,0.1-0.1,0.1-0.1,0.2c0.6,0.4,1.2,0.9,1.9,1.3c5.1,3.2,10.2,6.5,15.4,9.6
		c2.5,1.6,5.1,3.1,7.7,4.6c5.4,3.1,10.8,6.2,16.2,9.3c2.3,1.3,4.6,2.5,6.8,3.7c0.3,0.2,0.6,0.3,0.9,0.5c1,0.6,1.2,1.5,0.4,2.4
		c-0.3,0.4-0.7,0.6-1.3,0.4c-2.2-0.6-4.4-1.1-6.7-1.6c-1.9-0.5-3.8-0.8-5.7-1.4c-2.3-0.7-4.3-2-6.3-3.4c-2.6-1.8-5.1-3.6-7.7-5.4
		c-2.9-2.1-5.7-4.2-8.5-6.2c-3.2-2.3-6.5-4.7-9.8-7c-1.4-1-2.9-2-4.3-3c-0.1,0.1-0.1,0.1-0.2,0.2c0.7,0.7,1.5,1.4,2.2,2.1
		c0.3,0.3,0.8,0.4,0.6,0.9c-0.3,0.5-1.3,0.9-1.8,0.7c-0.4-0.2-0.8-0.6-1.3-0.8c-0.3-0.1-0.7-0.2-1.1-0.2c-0.6,0-1.3,0.2-1.9,0.2
		c-0.8,0-1.3,0.5-1.8,1c-1.2,1.5-1.6,1.9-3.8,0.7c-0.4-0.2-0.7-0.5-1.3-0.8c0.6,1.4,1.7,2.1,2.8,2.5c-1.1,2.2-2.2,4.4-3.3,6.5
		c-1.8,3.3-4.5,5.9-7,8.5c-0.6,0.6-1.3,1.3-1.9,2c-0.8,0.9-1.8,1.5-3,1.7c-2.4,0.5-4.8,1.2-7.3,1.8c-3.4,0.8-6.8,1.5-10.3,1.7
		c-0.9,0.1-1.7,0.2-2.6,0.2c-0.8,0.1-1.2,0.6-1.5,1.2c0,0,0,0,0,0.1c-0.3,0.6-0.6,1.3-0.9,1.9c-0.9,0-1.9,0.2-2.8,0
		c-3.4-0.6-6.7-1.3-10.1-1c-1,0.1-2,0.3-3,0.5c4.3-0.1,8.6,0.3,12.7,1.8c-0.2,0.6-0.4,1.3-0.6,1.9c-0.4,1.3-0.4,2.5,0.6,3.6
		c1.1,1.3,1.2,2.8,1.1,4.5c-0.1,1.8-0.7,3.5-1.5,5.2c1.4-1,2.2-3.1,2.7-7.1c2.7,3.1,5.3,6.1,7.9,9.1c0,0.1,0,0.1-0.1,0.2
		c-1.6-0.4-3.1-0.4-4.7,0.1c-1.5,0.5-2.8,1.3-3.8,2.6c2.8-1.9,5.7-2.6,8.8-1.2c1.8,0.8,3.1,2,3.9,3.9c-0.3-0.1-0.6-0.3-0.9-0.4
		c-2-0.9-4.1-0.9-6.2-0.3c-2.7,0.8-5,2.2-7,4.1c0.7-0.3,1.4-0.7,2.1-1c1.9-1,3.9-1.8,6-2.2c2.6-0.5,4.8,0.1,6.5,2.3
		c0.3,0.4,0.4,0.7,0.2,1.2c-1.1,4.1-2.2,8.3-3.1,12.5c-0.8,3.6-1.4,7.3-2,10.9c-0.4,2.6-0.8,5.2-1.1,7.8c-0.4,2.7-0.7,5.3-1.1,8
		c-0.3,2.5-0.6,5.1-0.8,7.6c-0.2,1.4-0.3,2.9-0.4,4.3c0,0.5,0.1,1,0.2,1.5c0.6,1.9,2.2,2.7,4.2,2c1.6-0.5,2.7-1.7,3.8-2.8
		c0.5-0.5,1.2-0.8,1.9-1c0.4-0.1,0.9,0,1.4,0.1c-0.6-0.4-1.2-0.7-1.8-0.5c-1.5,0.3-2.4,1.3-3.4,2.2c-0.9,0.7-1.8,1.4-3,1.4
		s-2.1-0.7-2.2-1.8c-0.1-1.1-0.1-2.2,0-3.3c0.2-2,0.5-3.9,0.8-5.9c0.3-2.1,0.5-4.2,0.9-6.3c0.4-2.5,0.8-4.9,1.2-7.4
		c0.5-3.2,1-6.4,1.7-9.5c1.1-4.8,2.2-9.7,3.4-14.5c0.8-3.1,1.9-6.1,3.4-8.9c1.1-2,2.6-3.4,4.8-3.8c1.9-0.4,3.6,0.8,3.6,2.8
		c0,1.2-0.4,2.4-0.7,3.5c-0.5,2.1-0.5,4.1,0.3,6.2c0.1,0.3,0.2,0.7,0.3,1.2c-0.5-0.1-0.8-0.2-1.1-0.3c-0.1-3.3-0.2-6.6-0.3-9.8
		c-0.1,0-0.2,0-0.2,0c-0.1,3.2-0.3,6.3-0.4,9.5c-0.7,0.1-0.9-0.2-0.9-0.9c0-1.9,0-3.8,0-5.8c0-1.4-0.2-2.7-0.4-4.1
		c-0.2,3.5-0.3,6.9-0.5,10.4c-0.6-0.1-1.2-0.2-1.7-0.3c0-2.9,0-5.8,0-8.7c0,0-0.1,0-0.1,0c-0.3,2.9-0.6,5.7-0.9,8.6
		c-0.7,0-1.3,0-1.9,0c0.1-1.9,0.2-3.8,0.3-5.7c-0.1,0-0.1,0-0.2,0c-0.2,1.2-0.4,2.4-0.6,3.6c0,0.3-0.1,0.5-0.1,0.8
		c0,0.8-0.1,1.6-1.4,1.4c0,0.1,0.1,0.1,0.1,0.2c0.8,0.1,1.6,0.2,2.5,0.3c2.6,0.4,5.2,1,7.6,2.1c0.8,0.3,1.2,0.9,1.3,1.8
		c0.1,0.9-0.4,1.2-1.2,0.9c-2.5-0.9-5-1.4-7.6-1.5c-0.1,0-0.2,0-0.5,0c1.4,0.4,2.7,0.7,4,1.1c1.4,0.4,2.7,1,4,1.5
		c0.4,0.2,0.7,0.6,0.9,0.9c0.1,0.3,0,0.8-0.1,1c-0.1,0.2-0.6,0.1-0.9,0.1c-1.2-0.3-2.3-0.8-3.5-1c-1.6-0.3-3.2-0.5-4.8-0.6
		c1.6,0.5,3.2,0.9,4.7,1.4c1.1,0.4,2.2,0.9,3.3,1.3c0.8,0.3,1.2,1,1.3,1.8c0.1,0.8-0.4,1.3-1.2,1.1c-1.5-0.4-3.1-1-4.6-1.4
		c-2.3-0.6-4.7-0.9-7.2-0.6c0.4,0.1,0.9,0.1,1.5,0.3c-2.2,11.6-4.5,23.1-6.7,34.7c3.7-11.2,6.1-22.7,7.9-34.4c0.1,0,0.1-0.1,0.1-0.1
		c1.4,0.3,1.5,0.3,1.2,1.9c-1.1,5.7-2.1,11.3-3.3,17c-0.8,4.2-1.8,8.4-2.7,12.5c-0.3,1.2-0.5,2.4-0.7,3.6c0.6-0.8,3-8.7,4.9-17
		c1.3-5.7,2.4-11.5,3.5-17.3c0,0,0.1,0,0.2,0c1.6,0.4,1.5,0.2,1.2,1.7c-0.5,2.9-0.9,5.8-1.4,8.6c-0.7,3.7-1.5,7.4-2.2,11.1
		c-0.2,0.9-0.3,1.8-0.4,2.8c0.6-1.9,1.2-3.8,1.7-5.7c0.5-1.9,1-3.9,1.5-5.8c0.4-2,0.8-3.9,1.2-5.9c0.4-2,0.7-3.9,1-5.9
		c0.2,0.1,0.5,0.2,0.7,0.3c-1,8-2.6,16-4.2,23.9c2.6-7.6,4.3-15.4,5.3-23.5c0.4,0.3,0.7,0.4,1,0.6c0.5,0.3,0.6,0.8,0.3,1.3
		c-2,3.8-2.3,8-3.2,12c-0.8,3.4-1.5,6.8-2.3,10.1c-0.2,0.7-0.3,1.4-0.5,2c-1.5-0.4-2.9-0.9-4.3-1.3c0,0.1,0,0.1-0.1,0.2
		c0.8,0.4,1.6,0.8,2.4,1.2c0.4,0.2,0.8,0.5,1.3,0.8c0.4,0.2,0.4,0.6,0.3,0.9c-0.3,1.6-0.7,3.1-1,4.6c-0.2,0.8,0.1,1.6,0.8,2
		c0.9,0.4,1.8,0.7,2.7,1c1,0.3,2,0.6,3,1c1.1,0.5,1.9,1.4,1.9,2.7c0,0.8-0.3,1.5-1.1,1.7c-1.4,0.5-2.9,1-4.4,1.1
		c-1.6,0.2-3.2-0.1-4.8-0.1c-1.7,0-3.3,0.2-5,0.3c-2.5,0.2-5,0.5-7.4-0.1c-0.3-0.1-0.7-0.2-1-0.4c-1-0.5-1.3-1.2-1.1-2.2
		c0.5-2.6,1-5.3,1.5-7.9c0.1-0.5,0.3-0.9,0.5-1.5c0.5,0.5,0.8,0.8,1.2,1.1c0.1,0,0.2,0,0.2,0c0-0.5,0-1-0.2-1.4
		c-0.2-0.5-0.6-1-0.9-1.4c-0.4-0.6-0.4-0.9,0.2-1.4c0.4-0.3,0.7-0.5,1-0.7c0-0.6,0.1-1,0.1-1.4c0-0.8,0.1-1.6,0.1-2.4c0,0,0,0,0-0.1
		c0.7-1.4,0.3-2.8,0.1-4.3c-0.1-0.6,0-1.2,0.1-1.8c0.3-1.4-0.1-2.8-0.2-4.3c-0.1-0.9-0.1-1.8-0.1-2.7c0-0.3,0.5-0.6,0.8-0.9
		c0.3-0.2,0.7-0.3,1-0.5c0-0.1,0-0.1,0-0.2c-0.5,0.1-1,0.2-1.4,0.3c-0.6,0.2-0.9,0.1-0.7-0.5c0.3-1.2,0.6-2.4,1-3.5
		c0.1-0.3,0.7-0.4,1.1-0.6c0.2-0.1,0.5-0.1,0.8-0.3c-0.5,0-1,0-1.4,0c-0.2-0.7-0.4-1.4-0.5-2.1c-0.2-1.1,0.6-1.7,1.2-2.4
		c0.7-0.6,1.4-1.2,2.3-1.9c-0.5,0.2-0.8,0.3-1.2,0.4c-0.2,0-0.5-0.1-0.6-0.2c-0.6-0.9-0.5-1.1,0.3-1.9c0.2-0.2,0.4-0.4,0.7-0.6
		c0.2-0.2,0.5-0.3,0.7-0.5c0-0.1-0.1-0.1-0.1-0.2c-0.7,0.3-1.4,0.5-2,0.9c-0.8,0.6-1.6,0.6-2.4,0c-1-0.7-1.9-1.5-2.8-2.3
		c-0.5-0.4-1-0.9-1.6-1.5c2-0.1,3.9-0.3,5.6-1.1c-4.6,0.6-9,0.2-13-2.5c0.4-1.3,0.8-2.5,1.2-3.8c0.6-2,1.2-4,1.9-5.9
		c1-2.8,3-4.9,5.4-6.5c0.4-0.3,0.8-0.5,1.3-0.8c-1.7,0.4-4.3,1.8-6.8,4.7c0.1-0.9,0.1-1.7,0.2-2.5c0-0.8,0-1.6-0.2-2.5
		c-0.1,0.9-0.3,1.7-0.4,2.6c-0.5,3.5-1.4,6.9-2.7,10.2c-1.3,3.4-2.8,6.8-4.7,10c-1.8,2.8-4.1,5.2-6.7,7.2c-0.4,0.3-0.8,0.6-1.2,0.9
		c2.9-1,5.3-2.8,7.5-5c-0.3,2.2-1,4.1-2.2,5.9c-1,1.4-1.6,3.1-2.3,4.6c-1.1-0.1-2.2-0.3-3.3-0.3c-3.1-0.2-6.2,0.4-9,1.8
		c-2.5,1.2-5,2.5-7.4,3.8c-3.4,1.9-6.7,3.9-10.1,5.8c-2.4,1.4-4.9,2.7-7.4,4c0,0-0.1,0.1,0,0.2c1.1-0.4,2.2-0.7,3.2-1.2
		c5.1-2.1,9.8-5,14.6-7.8c3.4-1.9,6.8-3.8,10.6-4.8c3.9-1,7.5-0.5,10.8,1.6c1.9,1.2,3.6,2.6,5.1,4.2c1.3,1.4,1.2,2.7-0.4,3.7
		c-1.2,0.7-2.5,1.3-3.6,2.1c-1,0.6-1.8,1.3-2.7,2c-0.6,0.5-1.3,0.8-2.1,0.4c-0.6-0.3-1.1-0.6-1.8-1c2.9-1.8,5.7-3.6,8.5-5.3
		c0-0.1-0.1-0.1-0.1-0.2c-1.1,0.5-2.2,1-3.2,1.6c-1.8,0.9-3.5,1.9-5.3,2.8c-0.9,0.5-0.9,0.5-1.6-0.3c2.7-1.7,5.4-3.3,8.2-5
		c0-0.1-0.1-0.1-0.1-0.2c-0.7,0.3-1.4,0.7-2.2,1c-2,1-4.1,2-6.1,3.1c-0.5,0.3-0.9,0.3-1.2-0.2c-0.2-0.3-0.5-0.6-0.8-0.9
		c2.5-1.6,5-3.1,7.5-4.7c0-0.1-0.1-0.1-0.1-0.2c-2.7,1.3-5.3,2.7-8.1,4c-0.4-0.6-0.8-1.1-1.2-1.8c2.3-1.4,4.5-2.8,6.8-4.1
		c0-0.1-0.1-0.1-0.1-0.2c-2.3,1.1-4.7,2.3-7.1,3.5c-0.3-0.6-0.6-1.2-0.8-1.7c0-0.1,0.2-0.4,0.3-0.5c1.3-0.8,2.6-1.6,3.8-2.6
		c-1.5,0.7-2.9,1.4-4.4,2.1c-0.1-0.2-0.2-0.4-0.3-0.6c0,0-0.1,0-0.1,0c0.1,0.4,0.1,0.8,0.2,1.1c1.2,4.7,3.8,8.3,7.7,11
		c0.7,0.5,0.6,0.9-0.1,1.2c-0.7,0.3-1.3,0.3-2-0.1c-2-1.2-3.7-2.8-5.2-4.6c-1.6-2-2.7-4.2-3.6-6.6c0-0.1-0.1-0.2-0.2-0.3
		c0.3,2.2,1.1,4.2,2.1,6.1c1.3,2.4,3,4.5,5.3,6.1c0.2,0.1,0.3,0.5,0.4,0.7c-0.4,0.2-0.7,0.5-1.1,0.5c-0.3,0-0.6-0.2-0.9-0.4
		c-3.1-2-5.4-4.8-7.1-8c-0.6-1.1-1.1-2.3-1.7-3.6c0.4,2,1,3.9,1.9,5.6c1.4,2.7,3.2,4.9,5.6,6.8c0.2,0.1,0.4,0.5,0.3,0.5
		c-0.2,0.2-0.4,0.5-0.7,0.5c-0.7,0.1-1.4,0-2-0.5c-2.6-2-4.6-4.6-6.1-7.5c-0.6-1.2-1-2.5-1.6-3.7c-0.1-0.2-0.1-0.3-0.3-0.5
		c0.3,0.8-0.3,0.8-0.8,1c-5.4,2.4-10.8,4.9-16.2,7.2c-3.9,1.7-7.9,3.2-11.8,4.8c-0.2,0.1-0.4,0.2-0.6,0.3c5.2-1.2,10.2-3,15.1-5
		c4.9-2,9.7-4.2,14.6-6.3c0.1,0.4,0.3,0.9,0.4,1.5c-9.4,4.4-18.9,8.4-28.6,12.3c0,0.1,0,0.1,0.1,0.2c2-0.6,3.9-1.1,5.9-1.8
		c2-0.6,3.9-1.4,5.8-2.1c2-0.7,3.9-1.5,5.8-2.3c1.9-0.8,3.8-1.6,5.7-2.5c1.9-0.9,3.8-1.8,5.7-2.7c0.3,0.5,0.5,1.1,0.8,1.7
		c-7,3.4-14.2,6.5-21.5,9.4c7.7-1.8,14.9-4.9,22.1-8.3c0.2,0.2,0.3,0.4,0.4,0.7c0.1,0.2,0.2,0.4,0.4,0.8c-6.9,3-13.9,6-20.8,9.1
		c7.5-1.9,14.5-4.9,21.5-8.2c0.2,0.3,0.4,0.5,0.7,0.8c-6.7,3.3-13.5,6.3-20.4,9c0,0.1,0,0.1,0.1,0.2c1-0.3,1.9-0.4,2.9-0.8
		c3.9-1.4,7.7-2.9,11.6-4.4c1.9-0.7,3.7-1.6,5.5-2.5c1.3-0.6,1.4-0.6,2.4,0.6c-3.8,0.4-7.1,2.3-10.6,3.5c-3.1,1.1-6.2,2.4-9.3,3.6
		c-0.6,0.2-1.2,0.4-1.7,0.7c-1.3,0.6-2.5,0.3-3.4-0.7c-1.1-1.2-2.1-2.5-3.1-3.8c-0.1-0.2-0.2-0.4-0.4-0.6c0.4,2,1.8,4.6,4.1,6.2
		c-0.8,0.3-1.5,0.5-2.2,0.8c-0.8,0.4-1.6,0.8-2.3,1.3c-1.4,0.9-2,1-3.3,0c-0.1,0-0.1-0.1-0.3-0.2c-0.1,0.9-0.2,1.7-0.4,2.5
		c-0.1,0.6-0.2,1.1-0.5,1.6c-0.9,1.6-2.4,1.6-3.9,0.4c-1.3-1.1-2.4-2.5-3.6-3.8c-0.5-0.6-1-1.3-1.4-1.9c-0.5-0.8-0.7-1.7-0.3-2.7
		c0.1-0.4,0-0.9-0.1-1.3c-0.2-0.9,0.4-2.1,1.3-2.5c0.4-0.2,0.8-0.1,1.1,0.3c1,1.6,2.6,2.1,4.3,2.6c0.4,0.1,0.8,0.2,1.2,0.4
		c1.2,0.4,1.8,1.2,2.1,2.4c0,0.2,0.1,0.3,0.2,0.6c0.4-1.7-0.4-3.1-2.1-3.8c-1.1-0.4-2.2-0.9-3.3-1.4c-1.1-0.5-1.6-1.6-1.7-2.8
		c-0.1-1.2,0.7-1.9,1.7-2.4c1.4-0.6,2.9-1.2,4.3-1.8c4.3-1.8,8.5-3.7,12.5-6c1.7-1,3.5-1.9,5.3-2.9c0,0.2,0,0.4,0,0.7
		c0.4-0.4,0.8-0.8,1.1-1.2c0.6-0.6,0.4-1.3,0-2c-0.7-1.4-0.6-1.8,0.9-2.4c0.6-0.3,1.3-0.5,1.9-0.5c1-0.1,1.7,1.2,1.2,2
		c-0.2,0.3-0.3,0.7-0.4,1.1c1-1.5,2.6-2.1,4.2-2.3c0.9-0.2,1-0.3,0.5-1.1c-0.3-0.4-0.1-0.6,0.2-0.8c0.4-0.2,0.7-0.5,1.1-0.7
		c0.2-0.1,0.5,0,0.8,0c0.2,0,0.4,0.2,0.6,0.1c1.4-0.7,2.8-1.3,4.2-2.1c1.8-1,3.2-2.5,4.1-4.4c-1,0.9-1.9,1.7-2.9,2.5
		c-1,0.8-2.1,1.4-3.4,1.9c0.1-0.6,0.1-1,0.2-1.4c0.5-2.8,0.1-5.5,0-8.3c-0.2-3.4,0.1-6.8,1.5-10c1.2,0.9,2.3,1.8,3.5,2.7
		c1.2,0.9,2.5,1.4,3.9,1.8c-0.9-0.6-1.9-1.2-2.8-1.9c-1.9-1.4-3.6-3-4.8-5.1c-0.4-0.7-0.5-1.6-0.7-2.4c-0.2-0.6-0.3-1.2-0.6-1.6
		c-0.5-0.7-0.7-1.4-0.6-2.2c1.1,0.8,2.1,1.6,3.2,2.4c0,0,0-0.1,0.1-0.1c-0.6-0.6-1.1-1.3-1.7-1.9c-1.3-1.4-1.9-3.1-2-5
		c-0.2-3.1,0.8-6.1,2.2-9.2c2.3,0.9,4.5,1.8,6.8,2.6c2.5,0.8,5.1,1.2,7.8,1c3.5-0.2,6.7-1.3,9.2-3.9c1-1,1.7-2.2,2.5-3.4
		c-0.1-0.1-0.1-0.1-0.2-0.2c-0.4,0.5-0.9,1.1-1.4,1.5c-2.1,2.1-4.5,3.7-7.4,4.3c-2.9,0.6-5.8,0.4-8.6-0.3c-2.5-0.6-4.8-1.6-7-2.9
		c-1.4-0.8-1.6-1.5-0.9-2.9c1-2.1,1.6-4.3,1.5-6.7c0-0.5,0-1.1,0-1.9c3.7,3.4,7.9,4.9,12.8,4c-0.2,0-0.5,0-0.7,0
		c-0.3,0-0.5-0.1-0.8-0.1c-4.6-0.2-8.3-2.1-11-5.8c-1.1-1.5-1.4-3.2-0.8-5c0.4-1.4,1-2.8,1.5-4.3c1.3,3.9,3.6,6.8,7.3,8.5
		c-3.4-2.5-5.6-5.6-6.4-9.8c-0.3-1.5,0-2.9,0.3-4.5c2.4,4.8,6,8,11.2,9.1c-1.1-0.6-2-1.1-3-1.6c-3.4-2-5.7-4.9-7.1-8.5
		c-0.7-1.7-0.2-3.4,0.7-5.1c0.7,1.4,1.7,2.3,3.1,2.7c-1.2-0.9-2-2-2.3-3.4c-0.3-1.5,0-2.9,0.7-4.2c1.4-2.6,2.8-5.2,4.3-7.8
		c1-1.7,2.4-3,4.1-4c-0.1,0.1-0.1,0.3-0.2,0.4c-1.1,1.8-1.9,3.7-2.1,5.8c-0.2,1.8,0.9,4,2.5,4.9c0.1,0.1,0.2,0.2,0.4,0.2
		c0.8,0.3,1.3,0.7,1.3,1.7c0.1,1.1,0.7,2.1,1.7,2.7c0.2,0.2,0.3,0.4,0.5,0.5c1.2,0.6,2.5,1.2,3.8,1.7c2.7,1.1,5.5,1.8,8.4,1.9
		c0.7,0,1.4-0.1,2.1-0.2c0-0.4-0.1-0.7-0.1-1c-0.2,0-0.4,0-0.6,0c-0.2,0-0.3,0.1-0.5,0.2c-0.3,0.1-0.6,0.2-1,0.2
		c-2.1-0.1-4.2-0.5-6.2-1.1c-0.6-0.2-1.1-0.4-1.4-1c-0.5-0.8-1-1.7-1.6-2.5c0,0-0.1,0-0.1,0c0.3,0.9,0.6,1.8,0.9,2.7
		c-0.5-0.2-1-0.3-1.5-0.5C64,32.5,63.2,32.1,62.3,31.7z M66.4,11.8c1.2,0,2.2,0,3.2,0c2.2,0.1,4.3,0.8,6.1,2.1
		c3.1,2.2,4.5,5.3,4.5,9c0,0.8,0.3,1.4,1.1,1.8c0.4,0.2,0.9,0.5,1.3,0.8c1.3,0.9,1.9,2.1,0.6,3.5c-0.1,0.1-0.2,0.5-0.1,0.6
		c0.5,0.9,0.4,1.9,0.1,2.8c-1.1,4-3.5,7.1-6.9,9.5c-1.6,1.1-3.3,1.4-5.1,0.6c-0.7-0.3-1.5-0.8-2.1-1.2c-2.5-1.6-4.5-3.7-6.5-5.9
		c-1.5-1.5-2.6-3.2-3.1-5.3c-0.1-0.5-0.2-1-0.3-1.5c-0.1,0.2-0.2,0.3-0.2,0.4c0,1.7,0.4,3.3,1.4,4.7c1.7,2.6,3.8,4.7,6.1,6.8
		c1.6,1.5,3.4,2.7,5.6,3.2c0.8,0.2,1.6,0.2,2.4,0.3c-2.7,1.7-5.7,2.7-8.8,3.4c0.2,0.1,0.4,0.1,0.7,0.1c3.3-0.2,6.4-1.3,9.3-3
		c0.6-0.4,1.3-0.8,1.9-1.2c0.9-0.5,1.2-0.3,1.4,0.7c0.3,2.2,0.1,4.4-0.9,6.5c-0.3,0.6-0.6,1.2-0.9,1.9c0.6-0.5,1-1.1,1.4-1.7
		c1.3-2.4,1.6-4.9,1.2-7.6c1.9-0.8,3.8-1,5.8-1.1c2-0.1,3.9,0.4,5.9,0.9c1.4,0.4,2.5,0,3.5-1.1c2-2.1,4.1-4.1,6.2-6.2
		c1.7-1.6,3.4-3.3,5-4.9c0.7-0.7,1.3-1.4,2.4-1.7c0.9-0.3,1.8-0.8,2.4-1.7c0.4-0.7,0.4-1.2-0.1-1.6c0,0.3,0,0.6-0.1,0.9
		c-0.6,1.1-1.7,1.6-2.9,1.9c-0.4,0.1-0.5-0.2-0.4-0.5c0.1-0.2,0.3-0.5,0.4-0.7c0.7-0.8,1.5-1.6,2.2-2.4c1-1.2,1.6-2.9,3.6-3.3
		c-1.6-1.2-3.1-2.2-4.5-3.3c0.6-0.6,1.1-1.1,1.8-1.7c-0.2,0-0.2,0-0.3,0c-4.3,2.5-8.8,3.1-13.6,2c-1.1-0.3-2.1-0.8-2.4-2
		c-0.2-0.9-0.5-1.9-0.5-2.9c0-1.2,0.3-2.4,0.4-3.6c-1.2,1.8-1.5,3.8-1.1,6c-0.3-0.2-0.5-0.3-0.6-0.4c-2.9-2-5.9-3.6-9.3-4.7
		c-1.4-0.5-1.6-0.4-2.5,0.7c-0.8,0.9-1.6,1.8-2.4,2.7C74.9,11.5,71,10.4,66.4,11.8z M124.1,25.7c13.4,9.8,27.6,18.4,42.7,25.4
		C152.6,42.6,138.3,34.2,124.1,25.7z M123.8,26.9c10.9,9.4,23,17.2,36.1,23.2C147.4,43.2,135.4,35.4,123.8,26.9z M59.9,28.9
		c0,0.2,0,0.4,0.1,0.7c0.2,1.8,1,3.3,2.2,4.5c2,2.1,4.1,4.1,6.3,6.1c1.3,1.2,2.8,2.1,4.7,2.2c1.6,0.1,3.4-1.1,3.7-2.6
		c-2.7,0.7-5.2,0.3-7.8-0.5c1,0.8,2.6,0.9,3.3,2.2c-0.8-0.3-1.7-0.6-2.4-1.2c-1.9-1.6-3.8-3.3-5.7-4.9
		C62.2,33.6,60.6,31.6,59.9,28.9z M57.3,90.8c2.3-1.4,6-6.5,7.7-10.2c2.2-4.7,3.1-10.5,2.7-12.6C66.2,76.6,62.7,84.1,57.3,90.8z
		 M55.7,25.5c-2.1,0.2-4,2.4-4.1,4.6c-0.2,2.8,1.1,5,2.9,6.8c2,2.1,4.6,3.3,7.3,4c1.2,0.3,2.4,0.4,3.6,0.6c0-0.1,0-0.1,0-0.2
		c-0.9-0.2-1.8-0.4-2.6-0.7c-3.8-1.2-7.1-3.1-9.3-6.6c-1.7-2.7-1.7-5.7,1-7.8C54.9,26,55.2,25.8,55.7,25.5z M62.8,32.8
		c3.8,2.5,7.9,4.1,12.5,4.3c0,0.3,0,0.6-0.1,1c-0.1,0.4-0.2,0.8-0.7,0.7c-1.2-0.1-2.4-0.1-3.5-0.2c-1-0.1-2-0.4-3-0.6
		c2.5,1.3,5,2,7.8,1.5c1.6-0.3,1.7-0.4,1.6-2c-0.1-1.3-0.1-1.3-1.3-1.2c0,0,0,0-0.1,0c-3.3,0.2-6.3-0.7-9.3-1.8
		C65.3,33.9,64.1,33.4,62.8,32.8z M50.3,87.6c4-1.1,7.2-3.4,9.9-6.4c3.3-3.5,5.2-8.8,5.1-10.6C62.6,78.4,57.6,84,50.3,87.6z
		 M96.9,141.6c-1.1-0.5-2.2-0.7-3.3-0.4c-1.4,0.4-2.7,0.8-4,1.3c-1.6,0.6-3.1,0.7-4.7,0.1c-0.6-0.2-1.2-0.4-1.8-0.5
		c-1.4-0.3-2.7-0.4-4,0.4c-1.3,0.8-2.5,1.7-4.1,1.8c0.2,0.1,0.4,0.1,0.6,0.1c0.9,0,1.8-0.2,2.7-0.8c1.6-1.1,3.4-1.3,5.2-0.6
		c0.8,0.3,1.7,0.6,2.5,0.7c1.6,0.3,3.1-0.3,4.5-0.9C92.6,142,94.7,141.4,96.9,141.6z M77,46c-0.1,0.1-0.1,0.2-0.1,0.2
		c-0.5,4-2.4,6.2-6.3,7.1c-1.9,0.4-3.8,0.7-5.6,1.1c-1.2,0.3-2.4,0.7-3.6,1c0,0.1,0,0.1,0.1,0.2c0.4-0.1,0.7-0.2,1.1-0.2
		c2.5-0.3,5.1-0.6,7.6-1c2.2-0.3,4.2-1.2,5.6-3.1C76.8,49.7,77.3,48,77,46z M113.2,23.4c0,0,0.1,0.1,0.1,0.1
		c0.6-0.7,1.3-1.4,1.9-2.2c0.3-0.4,0.6-0.9,0.9-1.2c0.7-0.7,1.6-0.5,1.9,0.4c0.1,0.2,0.1,0.5,0.2,0.8c0.1,1.1-0.3,2.2-0.8,3.2
		c-0.4,0.8-0.8,1.5-1.2,2.2c0.4-0.2,0.7-0.5,0.9-0.8c1.2-1.5,2-3.1,1.9-5.1c-0.1-1.3-1.1-2.2-2.3-2c-0.8,0.1-1.3,0.8-1.7,1.4
		C114.4,21.3,113.8,22.4,113.2,23.4z M48.7,66c5.2,0.1,11.4-3.5,13.6-7.5C58.3,62.3,53.8,64.8,48.7,66z M78.4,31.8
		c0.6,0.4,1.2,0.7,1.7,1.1c1.3,1,1.2,1,2.3-0.3c0.2-0.2,0.4-0.5,0.5-0.8c0.1-0.5,0.1-1.1,0-1.6c-0.1-0.5-0.4-0.5-0.8-0.3
		c-1,0.6-2,1-3,1.5C78.9,31.6,78.7,31.7,78.4,31.8z M47.1,86.7C47.1,86.7,47.1,86.8,47.1,86.7c2.4-1.3,3.6-3.9,2.9-6.5
		c-0.4-1.6-1.2-3.1-1.8-4.7c-0.1,0.5-0.2,1-0.1,1.5c0.2,0.8,0.4,1.5,0.6,2.3c0.6,1.9,0.7,3.7-0.3,5.5C48,85.5,47.5,86.1,47.1,86.7z
		 M56.9,27.3c-2.9,0-4.2,2.8-3.3,5.2c1,2.5,4.1,3.5,6.7,3c-0.3-0.1-0.6-0.1-0.8-0.1c-1.1-0.3-2.2-0.5-3.2-1c-1.8-0.8-2.6-2.8-2-4.6
		C54.8,28.5,55.7,27.7,56.9,27.3z M77.8,38.7c1.6-0.3,4.1-2.7,3.1-4c-1.1,0.4-2.1,0.8-3.1,1.2c-0.1,0-0.2,0.2-0.2,0.3
		C77.6,37.1,77.7,37.9,77.8,38.7z M8.4,145.7c-0.5-1.2-1.3-2.2-2.4-2.9C4.6,142,3.2,141,1.9,140c-0.7-0.5-0.9-1.3-0.6-2.1
		c0.1-0.3,0.2-0.6,0.3-0.8c0.1-0.5,0-1-0.2-1.3c-0.2,0.6-0.3,1.3-0.6,2c-0.4,1-0.4,1.9,0.3,2.6c0.8,0.8,1.7,1.6,2.7,2.1
		C5.5,143.4,7.2,144.1,8.4,145.7z M63.4,58.9c-2.7,3.3-5.6,6.4-8.9,9.1C58.4,66,61.4,62.9,63.4,58.9z M77.5,35.6
		c0.9-0.4,1.7-0.7,2.5-1.1c0.6-0.3,0.7-0.5,0.1-1c-0.8-0.5-1.6-0.9-2.4-1.4c-0.1-0.1-0.3,0-0.5-0.1c0.1,0.3,0.2,0.6,0.2,0.8
		c0,0.4,0.2,0.9,0,1.2C77,34.6,77.3,35,77.5,35.6z M54.7,77.2c4.1,0.2,8.4-3.1,9.3-5.9C61.5,74.3,58.4,76.3,54.7,77.2z M80.6,25.6
		c-0.4,0.6-0.8,1.3-1.3,1.9c-1.2,1.3-2.9,1.7-4.7,2.1c-0.9,0.2-1.8,0.3-2.7,0.4c0,0.1,0,0.1,0,0.2c0.8,0,1.6,0,2.5,0
		c1.4-0.1,2.8-0.4,4.1-1.1C80,28.2,80.8,26.9,80.6,25.6z M45.3,64.5c3.7,0,7.3-0.9,10.5-2.9C52.2,62.6,48.7,63.6,45.3,64.5z
		 M121.5,26.3c0.5-0.8,0.9-1.5,1.4-2.3C121.8,24.4,121.2,25.4,121.5,26.3z M77.3,40.6c0.7-0.6,1.2-1.1,1.8-1.6
		C77.7,39.3,77.5,39.4,77.3,40.6z M65.6,34.8c-0.1,0.1-0.1,0.1-0.2,0.2c0.7,0.8,1.4,1.7,2.1,2.5c0.1-0.1,0.1-0.1,0.2-0.2
		C67.1,36.4,66.3,35.6,65.6,34.8z M66.7,37.4c0.1-0.1,0.1-0.1,0.2-0.2c-0.7-0.9-1.4-1.7-2.1-2.6c-0.1,0.1-0.1,0.1-0.2,0.2
		C65.3,35.7,66,36.6,66.7,37.4z M82.3,33.6c-1.1,0.7-1.1,0.7-0.5,1.4C81.9,34.6,82.1,34.2,82.3,33.6z"/>
</g>
</svg>
